<svg xmlns="http://www.w3.org/2000/svg" width="21" height="24" viewBox="0 0 21 24">
  <g id="balcony-terrace" transform="translate(-32)">
    <g id="Group_6717" data-name="Group 6717" transform="translate(35.375)">
      <g id="Group_6716" data-name="Group 6716" transform="translate(0)">
        <path id="Path_7509" data-name="Path 7509" d="M111.125,0A7.133,7.133,0,0,0,104,7.125a.375.375,0,1,0,.75,0,6.375,6.375,0,1,1,12.75,0,.375.375,0,0,0,.75,0A7.133,7.133,0,0,0,111.125,0Z" transform="translate(-104)"/>
      </g>
    </g>
    <g id="Group_6719" data-name="Group 6719" transform="translate(32.75 14.25)">
      <g id="Group_6718" data-name="Group 6718" transform="translate(0)">
        <path id="Path_7510" data-name="Path 7510" d="M67.125,304H48.375a.375.375,0,0,0,0,.75h18.75a.375.375,0,0,0,0-.75Z" transform="translate(-48 -304)"/>
      </g>
    </g>
    <g id="Group_6721" data-name="Group 6721" transform="translate(32.75 22.125)">
      <g id="Group_6720" data-name="Group 6720" transform="translate(0)">
        <path id="Path_7511" data-name="Path 7511" d="M67.125,472H48.375a.375.375,0,1,0,0,.75h18.75a.375.375,0,1,0,0-.75Z" transform="translate(-48 -472)"/>
      </g>
    </g>
    <g id="Group_6723" data-name="Group 6723" transform="translate(34.25 14.25)">
      <g id="Group_6722" data-name="Group 6722" transform="translate(0)">
        <path id="Path_7512" data-name="Path 7512" d="M80.375,304a.375.375,0,0,0-.375.375v7.875a.375.375,0,0,0,.75,0v-7.875A.375.375,0,0,0,80.375,304Z" transform="translate(-80 -304)"/>
      </g>
    </g>
    <g id="Group_6725" data-name="Group 6725" transform="translate(36.5 14.25)">
      <g id="Group_6724" data-name="Group 6724">
        <path id="Path_7513" data-name="Path 7513" d="M128.375,304a.375.375,0,0,0-.375.375v7.875a.375.375,0,0,0,.75,0v-7.875A.375.375,0,0,0,128.375,304Z" transform="translate(-128 -304)"/>
      </g>
    </g>
    <g id="Group_6727" data-name="Group 6727" transform="translate(38.75 14.25)">
      <g id="Group_6726" data-name="Group 6726">
        <path id="Path_7514" data-name="Path 7514" d="M176.375,304a.375.375,0,0,0-.375.375v7.875a.375.375,0,1,0,.75,0v-7.875A.375.375,0,0,0,176.375,304Z" transform="translate(-176 -304)"/>
      </g>
    </g>
    <g id="Group_6729" data-name="Group 6729" transform="translate(41 14.25)">
      <g id="Group_6728" data-name="Group 6728">
        <path id="Path_7515" data-name="Path 7515" d="M224.375,304a.375.375,0,0,0-.375.375v7.875a.375.375,0,0,0,.75,0v-7.875A.375.375,0,0,0,224.375,304Z" transform="translate(-224 -304)"/>
      </g>
    </g>
    <g id="Group_6731" data-name="Group 6731" transform="translate(43.25 14.25)">
      <g id="Group_6730" data-name="Group 6730" transform="translate(0)">
        <path id="Path_7516" data-name="Path 7516" d="M272.375,304a.375.375,0,0,0-.375.375v7.875a.375.375,0,0,0,.75,0v-7.875A.375.375,0,0,0,272.375,304Z" transform="translate(-272 -304)"/>
      </g>
    </g>
    <g id="Group_6733" data-name="Group 6733" transform="translate(45.5 14.25)">
      <g id="Group_6732" data-name="Group 6732">
        <path id="Path_7517" data-name="Path 7517" d="M320.375,304a.375.375,0,0,0-.375.375v7.875a.375.375,0,0,0,.75,0v-7.875A.375.375,0,0,0,320.375,304Z" transform="translate(-320 -304)"/>
      </g>
    </g>
    <g id="Group_6735" data-name="Group 6735" transform="translate(47.75 14.25)">
      <g id="Group_6734" data-name="Group 6734">
        <path id="Path_7518" data-name="Path 7518" d="M368.375,304a.375.375,0,0,0-.375.375v7.875a.375.375,0,1,0,.75,0v-7.875A.375.375,0,0,0,368.375,304Z" transform="translate(-368 -304)"/>
      </g>
    </g>
    <g id="Group_6737" data-name="Group 6737" transform="translate(50 14.25)">
      <g id="Group_6736" data-name="Group 6736">
        <path id="Path_7519" data-name="Path 7519" d="M416.375,304a.375.375,0,0,0-.375.375v7.875a.375.375,0,1,0,.75,0v-7.875A.375.375,0,0,0,416.375,304Z" transform="translate(-416 -304)"/>
      </g>
    </g>
    <g id="Group_6739" data-name="Group 6739" transform="translate(34.25 22.5)">
      <g id="Group_6738" data-name="Group 6738" transform="translate(0)">
        <path id="Path_7520" data-name="Path 7520" d="M81.125,480.75a.375.375,0,0,1-.375-.375.375.375,0,0,0-.75,0,1.126,1.126,0,0,0,1.125,1.125.375.375,0,1,0,0-.75Z" transform="translate(-80 -480)"/>
      </g>
    </g>
    <g id="Group_6741" data-name="Group 6741" transform="translate(34.25 22.125)">
      <g id="Group_6740" data-name="Group 6740" transform="translate(0)">
        <path id="Path_7521" data-name="Path 7521" d="M80.375,472a.375.375,0,0,0-.375.375v.375a.375.375,0,0,0,.75,0v-.375A.375.375,0,0,0,80.375,472Z" transform="translate(-80 -472)"/>
      </g>
    </g>
    <g id="Group_6743" data-name="Group 6743" transform="translate(49.25 22.5)">
      <g id="Group_6742" data-name="Group 6742">
        <path id="Path_7522" data-name="Path 7522" d="M401.125,480a.375.375,0,0,0-.375.375.375.375,0,0,1-.375.375.375.375,0,0,0,0,.75,1.126,1.126,0,0,0,1.125-1.125A.375.375,0,0,0,401.125,480Z" transform="translate(-400 -480)"/>
      </g>
    </g>
    <g id="Group_6745" data-name="Group 6745" transform="translate(50 22.125)">
      <g id="Group_6744" data-name="Group 6744">
        <path id="Path_7523" data-name="Path 7523" d="M416.375,472a.375.375,0,0,0-.375.375v.375a.375.375,0,1,0,.75,0v-.375A.375.375,0,0,0,416.375,472Z" transform="translate(-416 -472)"/>
      </g>
    </g>
    <g id="Group_6747" data-name="Group 6747" transform="translate(35 23.25)">
      <g id="Group_6746" data-name="Group 6746">
        <path id="Path_7524" data-name="Path 7524" d="M110.625,496H96.375a.375.375,0,0,0,0,.75h14.25a.375.375,0,0,0,0-.75Z" transform="translate(-96 -496)"/>
      </g>
    </g>
    <g id="Group_6749" data-name="Group 6749" transform="translate(35.375 6.75)">
      <g id="Group_6748" data-name="Group 6748" transform="translate(0)">
        <path id="Path_7525" data-name="Path 7525" d="M104.375,144a.375.375,0,0,0-.375.375v7.5a.375.375,0,0,0,.75,0v-7.5A.375.375,0,0,0,104.375,144Z" transform="translate(-104 -144)"/>
      </g>
    </g>
    <g id="Group_6751" data-name="Group 6751" transform="translate(48.875 6.75)">
      <g id="Group_6750" data-name="Group 6750">
        <path id="Path_7526" data-name="Path 7526" d="M392.375,144a.375.375,0,0,0-.375.375v7.5a.375.375,0,0,0,.75,0v-7.5A.375.375,0,0,0,392.375,144Z" transform="translate(-392 -144)"/>
      </g>
    </g>
    <g id="Group_6753" data-name="Group 6753" transform="translate(42.125)">
      <g id="Group_6752" data-name="Group 6752" transform="translate(0)">
        <path id="Path_7527" data-name="Path 7527" d="M248.375,0A.375.375,0,0,0,248,.375V5.25a.375.375,0,1,0,.75,0V.375A.375.375,0,0,0,248.375,0Z" transform="translate(-248)"/>
      </g>
    </g>
    <g id="Group_6755" data-name="Group 6755" transform="translate(35.375 4.875)">
      <g id="Group_6754" data-name="Group 6754" transform="translate(0)">
        <path id="Path_7528" data-name="Path 7528" d="M111.125,104a.375.375,0,0,0-.375.375,6.382,6.382,0,0,1-6.375,6.375.375.375,0,1,0,0,.75,7.133,7.133,0,0,0,7.125-7.125A.375.375,0,0,0,111.125,104Z" transform="translate(-104 -104)"/>
      </g>
    </g>
    <g id="Group_6757" data-name="Group 6757" transform="translate(42.125 4.875)">
      <g id="Group_6756" data-name="Group 6756" transform="translate(0)">
        <path id="Path_7529" data-name="Path 7529" d="M255.125,110.75a6.382,6.382,0,0,1-6.375-6.375.375.375,0,1,0-.75,0,7.133,7.133,0,0,0,7.125,7.125.375.375,0,0,0,0-.75Z" transform="translate(-248 -104)"/>
      </g>
    </g>
    <g id="Group_6759" data-name="Group 6759" transform="translate(46.625 11.241)">
      <g id="Group_6758" data-name="Group 6758">
        <path id="Path_7530" data-name="Path 7530" d="M344.375,239.808a.375.375,0,0,0-.375.375v3.009a.375.375,0,0,0,.75,0v-3.009A.375.375,0,0,0,344.375,239.808Z" transform="translate(-344 -239.808)"/>
      </g>
    </g>
    <g id="Group_6761" data-name="Group 6761" transform="translate(37.625 11.241)">
      <g id="Group_6760" data-name="Group 6760">
        <path id="Path_7531" data-name="Path 7531" d="M152.375,239.808a.375.375,0,0,0-.375.375v3.009a.375.375,0,0,0,.75,0v-3.009A.375.375,0,0,0,152.375,239.808Z" transform="translate(-152 -239.808)"/>
      </g>
    </g>
    <g id="Group_6763" data-name="Group 6763" transform="translate(32 11.25)">
      <g id="Group_6762" data-name="Group 6762" transform="translate(0)">
        <path id="Path_7532" data-name="Path 7532" d="M33.125,240a1.125,1.125,0,1,0,1.125,1.125A1.126,1.126,0,0,0,33.125,240Zm0,1.5a.375.375,0,1,1,.375-.375A.375.375,0,0,1,33.125,241.5Z" transform="translate(-32 -240)"/>
      </g>
    </g>
    <g id="Group_6765" data-name="Group 6765" transform="translate(50.75 11.25)">
      <g id="Group_6764" data-name="Group 6764">
        <path id="Path_7533" data-name="Path 7533" d="M433.125,240a1.125,1.125,0,1,0,1.125,1.125A1.126,1.126,0,0,0,433.125,240Zm0,1.5a.375.375,0,1,1,.375-.375A.375.375,0,0,1,433.125,241.5Z" transform="translate(-432 -240)"/>
      </g>
    </g>
    <g id="Group_6767" data-name="Group 6767" transform="translate(32.75 12.75)">
      <g id="Group_6766" data-name="Group 6766" transform="translate(0)">
        <path id="Path_7534" data-name="Path 7534" d="M48.375,272a.375.375,0,0,0-.375.375v9.375a.375.375,0,1,0,.75,0v-9.375A.375.375,0,0,0,48.375,272Z" transform="translate(-48 -272)"/>
      </g>
    </g>
    <g id="Group_6769" data-name="Group 6769" transform="translate(51.5 12.75)">
      <g id="Group_6768" data-name="Group 6768">
        <path id="Path_7535" data-name="Path 7535" d="M448.375,272a.375.375,0,0,0-.375.375v9.375a.375.375,0,1,0,.75,0v-9.375A.375.375,0,0,0,448.375,272Z" transform="translate(-448 -272)"/>
      </g>
    </g>
  </g>
</svg>