<svg xmlns="http://www.w3.org/2000/svg" width="24" height="20" viewBox="0 0 24 20">
  <path id="business-facilities" d="M22.8,3.333H17.6V1.852A1.932,1.932,0,0,0,15.6,0H8.4a1.932,1.932,0,0,0-2,1.852V3.333H1.2A1.158,1.158,0,0,0,0,4.444v8.244a1.125,1.125,0,0,0,.8,1.046v5.154A1.158,1.158,0,0,0,2,20H22a1.158,1.158,0,0,0,1.2-1.111V13.735a1.125,1.125,0,0,0,.8-1.046V4.444a1.158,1.158,0,0,0-1.2-1.111ZM7.2,1.852A1.158,1.158,0,0,1,8.4.741h7.2a1.158,1.158,0,0,1,1.2,1.111V3.333H16V1.852a.386.386,0,0,0-.4-.37H8.4a.386.386,0,0,0-.4.37V3.333H7.2Zm8,1.481H8.8V2.222h6.4Zm7.2,15.556a.386.386,0,0,1-.4.37H2a.386.386,0,0,1-.4-.37V13.862l8.8,1.124v.94a1.158,1.158,0,0,0,1.2,1.111h.8a1.158,1.158,0,0,0,1.2-1.111v-.94l8.8-1.124Zm-9.6-2.963a.386.386,0,0,1-.4.37h-.8a.386.386,0,0,1-.4-.37V13.7a.386.386,0,0,1,.4-.37h.8a.386.386,0,0,1,.4.37Zm10.4-3.237a.381.381,0,0,1-.344.367l-.111.014L13.6,14.238V13.7a1.158,1.158,0,0,0-1.2-1.111h-.8A1.158,1.158,0,0,0,10.4,13.7v.534L1.144,13.056A.381.381,0,0,1,.8,12.689V4.444a.386.386,0,0,1,.4-.37H22.8a.386.386,0,0,1,.4.37Zm0,0"/>
</svg>