<svg id="city-view" xmlns="http://www.w3.org/2000/svg" width="24" height="24" viewBox="0 0 24 24">
  <g id="Group_6770" data-name="Group 6770" transform="translate(0 0)">
    <path id="Path_7539" data-name="Path 7539" d="M22,23.2V21.129A1.968,1.968,0,0,0,23.2,19.2a1.836,1.836,0,0,0-1.6-2,1.836,1.836,0,0,0-1.6,2,1.968,1.968,0,0,0,1.2,1.929V23.2h-2V10.8a.4.4,0,0,0-.221-.358L16,8.953V6.8a.4.4,0,0,0-.29-.385L10.4,4.9V.4A.4.4,0,0,0,10,0H2a.4.4,0,0,0-.4.4V23.2H0V24H24v-.8Zm-12.4,0H2.4v-.8H6v-.8H2.4V20H6v-.8H2.4V17.6H6v-.8H2.4V15.2H6v-.8H2.4V12.8H6V12H2.4V10.4H6V9.6H2.4V8H6V7.2H2.4V5.6H6V4.8H2.4V3.2H6V2.4H2.4V.8H9.6Zm5.6,0H10.4v-.8h2.8v-.8H10.4V20h2.8v-.8H10.4V17.6h2.8v-.8H10.4V15.2h2.8v-.8H10.4V12.8h2.8V12H10.4V10.4h2.8V9.6H10.4V8h2.8V7.2H10.4V5.73L15.2,7.1Zm3.2,0H16v-.8h1.2v-.8H16V20h1.2v-.8H16V17.6h1.2v-.8H16V15.2h1.2v-.8H16V12.8h1.2V12H16V9.847l2.4,1.2Zm2.8-2.972a1.4,1.4,0,0,1-.4-1.028c0-.65.366-1.2.8-1.2s.8.55.8,1.2a1.4,1.4,0,0,1-.4,1.028V19.6h-.8Z" transform="translate(0 0)"/>
  </g>
</svg>