<svg xmlns="http://www.w3.org/2000/svg" width="24" height="17.104" viewBox="0 0 24 17.104">
  <g id="free-wifi" transform="translate(0 -7.89)">
    <path id="Path_7396" data-name="Path 7396" d="M23.872,12.8a16.808,16.808,0,0,0-23.744,0,.437.437,0,0,0,.618.618,15.934,15.934,0,0,1,22.508,0,.437.437,0,1,0,.618-.618Z"/>
    <path id="Path_7397" data-name="Path 7397" d="M6.006,20.046a.437.437,0,1,0,.618.618,12.3,12.3,0,0,1,17.369,0,.437.437,0,0,0,.618-.618A13.171,13.171,0,0,0,6.006,20.046Z" transform="translate(-3.309 -4.677)"/>
    <path id="Path_7398" data-name="Path 7398" d="M18.618,24.508a9.459,9.459,0,0,0-6.733,2.785.437.437,0,0,0,.618.618,8.658,8.658,0,0,1,12.23,0,.437.437,0,0,0,.618-.618A9.458,9.458,0,0,0,18.618,24.508Z" transform="translate(-6.618 -9.354)"/>
    <path id="Path_7399" data-name="Path 7399" d="M23.766,33.916A2.864,2.864,0,1,0,26.63,36.78,2.867,2.867,0,0,0,23.766,33.916Zm0,4.853a1.99,1.99,0,1,1,1.99-1.99A1.992,1.992,0,0,1,23.766,38.769Z" transform="translate(-11.767 -14.65)"/>
  </g>
</svg>