<svg id="front-desk" xmlns="http://www.w3.org/2000/svg" width="24" height="24" viewBox="0 0 24 24">
  <g id="Group_6639" data-name="Group 6639" transform="translate(2.712)">
    <g id="Group_6638" data-name="Group 6638">
      <path id="Path_7404" data-name="Path 7404" d="M60.494,0A3.078,3.078,0,0,0,57.4,3.052a3.095,3.095,0,1,0,6.189,0A3.075,3.075,0,0,0,60.494,0Zm0,5.419A2.378,2.378,0,0,1,58.17,3.052a2.325,2.325,0,0,1,4.649,0A2.375,2.375,0,0,1,60.494,5.419Z" transform="translate(-57.4 0)"/>
    </g>
  </g>
  <g id="Group_6641" data-name="Group 6641" transform="translate(0 4.257)">
    <g id="Group_6640" data-name="Group 6640">
      <path id="Path_7405" data-name="Path 7405" d="M24,97.843V90.1H12.387v7.743H15.1v.775H10.843V95.136A3.676,3.676,0,0,0,8.381,91.8a4.638,4.638,0,0,1-2.57,1.011A4.062,4.062,0,0,1,3.241,91.8,3.619,3.619,0,0,0,.78,95.136v3.482H0v10.45H1.55v.775h.775v-.775H21.68v.775h.775v-.775H24V98.618H21.288v-.775ZM1.55,95.131A2.727,2.727,0,0,1,3.109,92.68a4.593,4.593,0,0,0,2.7.9,4.56,4.56,0,0,0,2.7-.9,2.727,2.727,0,0,1,1.559,2.452v3.482H9.288V95.131H8.513v3.482H3.094V95.131h-.77v3.482H1.55Zm21.676,13.162H.775v-5.806h22.45Zm0-8.9v2.324H.775V99.393Zm-7.356-.775v-.775h4.644v.775Zm-2.707-1.55V90.875H23.225v6.194Z" transform="translate(0 -90.1)"/>
    </g>
  </g>
</svg>