<svg xmlns="http://www.w3.org/2000/svg" width="22" height="24" viewBox="0 0 22 24">
  <g id="heater" transform="translate(-21.328 0)">
    <g id="Group_6850" data-name="Group 6850" transform="translate(27.378 0)">
      <g id="Group_6849" data-name="Group 6849" transform="translate(0 0)">
        <path id="Path_7585" data-name="Path 7585" d="M151.826,3.337a2.141,2.141,0,0,1-.02-2.56.5.5,0,1,0-.832-.554,3.1,3.1,0,0,0-.044,3.557,2.036,2.036,0,0,1,.044,2.443.5.5,0,1,0,.831.554A3.007,3.007,0,0,0,151.826,3.337Z" transform="translate(-150.382 0)"/>
      </g>
    </g>
    <g id="Group_6852" data-name="Group 6852" transform="translate(31.361 0)">
      <g id="Group_6851" data-name="Group 6851" transform="translate(0 0)">
        <path id="Path_7586" data-name="Path 7586" d="M236.812,3.337a2.14,2.14,0,0,1-.021-2.56.5.5,0,0,0-.832-.554,3.1,3.1,0,0,0-.044,3.558,2.035,2.035,0,0,1,.044,2.442.5.5,0,0,0,.139.693.494.494,0,0,0,.277.084.5.5,0,0,0,.416-.223A3.007,3.007,0,0,0,236.812,3.337Z" transform="translate(-235.369 0)"/>
      </g>
    </g>
    <g id="Group_6854" data-name="Group 6854" transform="translate(35.344 0)">
      <g id="Group_6853" data-name="Group 6853" transform="translate(0 0)">
        <path id="Path_7587" data-name="Path 7587" d="M321.783,3.337a2.14,2.14,0,0,1-.021-2.56.5.5,0,1,0-.832-.554,3.1,3.1,0,0,0-.044,3.558,2.035,2.035,0,0,1,.044,2.442.5.5,0,0,0,.139.693.5.5,0,0,0,.693-.139A3.007,3.007,0,0,0,321.783,3.337Z" transform="translate(-320.34 0)"/>
      </g>
    </g>
    <g id="Group_6856" data-name="Group 6856" transform="translate(21.328 8)">
      <g id="Group_6855" data-name="Group 6855" transform="translate(0)">
        <path id="Path_7588" data-name="Path 7588" d="M40.828,170.655h-17a2.5,2.5,0,0,0-2.5,2.5v9a2.5,2.5,0,0,0,2.5,2.5h17a2.5,2.5,0,0,0,2.5-2.5v-9A2.5,2.5,0,0,0,40.828,170.655Zm1.5,11.5a1.5,1.5,0,0,1-1.5,1.5h-17a1.5,1.5,0,0,1-1.5-1.5v-9a1.5,1.5,0,0,1,1.5-1.5h17a1.5,1.5,0,0,1,1.5,1.5Z" transform="translate(-21.328 -170.655)"/>
      </g>
    </g>
    <g id="Group_6858" data-name="Group 6858" transform="translate(24.328 10)">
      <g id="Group_6857" data-name="Group 6857" transform="translate(0)">
        <path id="Path_7589" data-name="Path 7589" d="M85.827,213.322a.5.5,0,0,0-.5.5v9a.5.5,0,1,0,1,0v-9A.5.5,0,0,0,85.827,213.322Z" transform="translate(-85.327 -213.322)"/>
      </g>
    </g>
    <g id="Group_6860" data-name="Group 6860" transform="translate(27.328 10)">
      <g id="Group_6859" data-name="Group 6859" transform="translate(0)">
        <path id="Path_7590" data-name="Path 7590" d="M149.827,213.322a.5.5,0,0,0-.5.5v9a.5.5,0,1,0,1,0v-9A.5.5,0,0,0,149.827,213.322Z" transform="translate(-149.327 -213.322)"/>
      </g>
    </g>
    <g id="Group_6862" data-name="Group 6862" transform="translate(30.328 10)">
      <g id="Group_6861" data-name="Group 6861">
        <path id="Path_7591" data-name="Path 7591" d="M213.827,213.322a.5.5,0,0,0-.5.5v9a.5.5,0,1,0,1,0v-9A.5.5,0,0,0,213.827,213.322Z" transform="translate(-213.327 -213.322)"/>
      </g>
    </g>
    <g id="Group_6864" data-name="Group 6864" transform="translate(33.328 10)">
      <g id="Group_6863" data-name="Group 6863" transform="translate(0)">
        <path id="Path_7592" data-name="Path 7592" d="M277.827,213.322a.5.5,0,0,0-.5.5v9a.5.5,0,1,0,1,0v-9A.5.5,0,0,0,277.827,213.322Z" transform="translate(-277.327 -213.322)"/>
      </g>
    </g>
    <g id="Group_6866" data-name="Group 6866" transform="translate(36.328 10)">
      <g id="Group_6865" data-name="Group 6865">
        <path id="Path_7593" data-name="Path 7593" d="M341.827,213.322a.5.5,0,0,0-.5.5v9a.5.5,0,1,0,1,0v-9A.5.5,0,0,0,341.827,213.322Z" transform="translate(-341.327 -213.322)"/>
      </g>
    </g>
    <g id="Group_6868" data-name="Group 6868" transform="translate(39.328 10)">
      <g id="Group_6867" data-name="Group 6867">
        <path id="Path_7594" data-name="Path 7594" d="M405.827,213.322a.5.5,0,0,0-.5.5v9a.5.5,0,1,0,1,0v-9A.5.5,0,0,0,405.827,213.322Z" transform="translate(-405.327 -213.322)"/>
      </g>
    </g>
    <g id="Group_6870" data-name="Group 6870" transform="translate(25.328 21)">
      <g id="Group_6869" data-name="Group 6869">
        <path id="Path_7595" data-name="Path 7595" d="M107.161,447.989a.5.5,0,0,0-.5.5v2a.5.5,0,1,0,1,0v-2A.5.5,0,0,0,107.161,447.989Z" transform="translate(-106.661 -447.989)"/>
      </g>
    </g>
    <g id="Group_6872" data-name="Group 6872" transform="translate(38.328 21)">
      <g id="Group_6871" data-name="Group 6871" transform="translate(0)">
        <path id="Path_7596" data-name="Path 7596" d="M384.494,447.989a.5.5,0,0,0-.5.5v2a.5.5,0,1,0,1,0v-2A.5.5,0,0,0,384.494,447.989Z" transform="translate(-383.994 -447.989)"/>
      </g>
    </g>
  </g>
</svg>