<svg xmlns="http://www.w3.org/2000/svg" width="21.452" height="24" viewBox="0 0 21.452 24">
  <g id="private-beach" transform="translate(-19.086)">
    <g id="Group_6618" data-name="Group 6618" transform="translate(19.087 14.547)">
      <g id="Group_6617" data-name="Group 6617" transform="translate(0)">
        <path id="Path_7375" data-name="Path 7375" d="M39.131,218.846a.5.5,0,0,0-.641-.267,4.963,4.963,0,0,1-4.725,0,5.048,5.048,0,0,0-4.832,0,4.963,4.963,0,0,1-4.725,0,5.048,5.048,0,0,0-4.832,0,.484.484,0,1,0,.4.881,4.155,4.155,0,0,1,4.031.027,6.414,6.414,0,0,0,2.643.667,7.456,7.456,0,0,0,2.857-.667,4.155,4.155,0,0,1,4.031.027,6.414,6.414,0,0,0,2.643.667,7.455,7.455,0,0,0,2.856-.667A.508.508,0,0,0,39.131,218.846Z" transform="translate(-19.094 -217.962)"/>
      </g>
    </g>
    <g id="Group_6620" data-name="Group 6620" transform="translate(19.087 18.151)">
      <g id="Group_6619" data-name="Group 6619" transform="translate(0)">
        <path id="Path_7376" data-name="Path 7376" d="M39.077,272.9a.421.421,0,0,0-.587-.32,4.963,4.963,0,0,1-4.725,0,5.048,5.048,0,0,0-4.832,0,4.963,4.963,0,0,1-4.725,0,5.053,5.053,0,0,0-4.832,0,.53.53,0,0,0-.24.667.489.489,0,0,0,.641.24,4.155,4.155,0,0,1,4.031.027,6.414,6.414,0,0,0,2.643.667,7.456,7.456,0,0,0,2.857-.667,4.155,4.155,0,0,1,4.031.027,6.415,6.415,0,0,0,2.643.667,7.457,7.457,0,0,0,2.856-.667A.468.468,0,0,0,39.077,272.9Z" transform="translate(-19.094 -271.962)"/>
      </g>
    </g>
    <g id="Group_6622" data-name="Group 6622" transform="translate(19.086 21.808)">
      <g id="Group_6621" data-name="Group 6621">
        <path id="Path_7377" data-name="Path 7377" d="M39.1,327.646a.5.5,0,0,0-.641-.267,4.963,4.963,0,0,1-4.725,0,5.048,5.048,0,0,0-4.832,0,4.963,4.963,0,0,1-4.725,0,5.048,5.048,0,0,0-4.832,0,.462.462,0,0,0-.214.614.489.489,0,0,0,.641.24,4.155,4.155,0,0,1,4.031.027,6.414,6.414,0,0,0,2.643.667,7.456,7.456,0,0,0,2.857-.667,4.155,4.155,0,0,1,4.031.027,6.414,6.414,0,0,0,2.643.667,7.455,7.455,0,0,0,2.856-.667A.5.5,0,0,0,39.1,327.646Z" transform="translate(-19.086 -326.762)"/>
      </g>
    </g>
    <g id="Group_6624" data-name="Group 6624" transform="translate(26.817)">
      <g id="Group_6623" data-name="Group 6623" transform="translate(0)">
        <path id="Path_7378" data-name="Path 7378" d="M148.155,6.38h-2.59a3.687,3.687,0,0,0-.774-1.842L146.634,2.7A.491.491,0,0,0,145.94,2L144.1,3.844a3.9,3.9,0,0,0-1.842-.774V.481a.481.481,0,1,0-.961,0V3.07a3.687,3.687,0,0,0-1.842.774L137.61,2a.491.491,0,0,0-.694.694l1.842,1.842a3.9,3.9,0,0,0-.774,1.842h-2.59a.481.481,0,0,0,0,.961h2.59a3.687,3.687,0,0,0,.774,1.842l-1.842,1.842a.5.5,0,0,0,0,.694.442.442,0,0,0,.347.133.562.562,0,0,0,.347-.133l1.842-1.842a3.9,3.9,0,0,0,1.842.774v2.59a.481.481,0,1,0,.961,0v-2.59a3.687,3.687,0,0,0,1.842-.774l1.842,1.842a.442.442,0,0,0,.347.133.562.562,0,0,0,.347-.133.5.5,0,0,0,0-.694l-1.842-1.842a3.9,3.9,0,0,0,.774-1.842h2.59a.481.481,0,1,0,0-.961Zm-6.407,3.337A2.857,2.857,0,1,1,144.6,6.861,2.86,2.86,0,0,1,141.748,9.717Z" transform="translate(-134.914)"/>
      </g>
    </g>
  </g>
</svg>