<svg xmlns="http://www.w3.org/2000/svg" width="20.2" height="24" viewBox="0 0 20.2 24">
  <g id="washing-machine" transform="translate(-13.6 -4.75)">
    <path id="Path_7503" data-name="Path 7503" d="M39.446,42.192a6.209,6.209,0,1,0,6.1,6.208,6.155,6.155,0,0,0-6.1-6.208Zm0,11.708a5.5,5.5,0,1,1,5.4-5.5,5.452,5.452,0,0,1-5.4,5.5Z" transform="translate(-15.747 -29.859)"/>
    <path id="Path_7504" data-name="Path 7504" d="M50.2,57.644a2.615,2.615,0,0,1,0-4.14.355.355,0,0,0,.07-.487,4.386,4.386,0,1,0,0,5.114A.354.354,0,0,0,50.2,57.644ZM46.71,59.251a3.677,3.677,0,1,1,2.783-6.074,3.325,3.325,0,0,0,0,4.8,3.681,3.681,0,0,1-2.783,1.279Z" transform="translate(-23.004 -37.033)"/>
    <path id="Path_7505" data-name="Path 7505" d="M33.449,4.75H13.95a.353.353,0,0,0-.35.354V28.4a.353.353,0,0,0,.351.354h19.5A.353.353,0,0,0,33.8,28.4V5.1a.356.356,0,0,0-.1-.251.349.349,0,0,0-.248-.1ZM14.3,5.459H33.1V8.333H14.3Zm0,22.582v-19H33.1v19Z" transform="translate(0)"/>
    <path id="Path_7506" data-name="Path 7506" d="M75.9,9.6a1.165,1.165,0,1,0,1.165,1.165A1.165,1.165,0,0,0,75.9,9.6Zm0,1.62a.456.456,0,1,1,.456-.456A.456.456,0,0,1,75.9,11.22Z" transform="translate(-48.901 -3.868)"/>
    <path id="Path_7507" data-name="Path 7507" d="M90.96,9.6a1.165,1.165,0,1,0,1.165,1.165A1.165,1.165,0,0,0,90.96,9.6Zm0,1.62a.456.456,0,1,1,.456-.456A.456.456,0,0,1,90.96,11.22Z" transform="translate(-60.98 -3.868)"/>
    <path id="Path_7508" data-name="Path 7508" d="M34.109,13.6h-7.05a.354.354,0,0,0,0,.709h7.05a.354.354,0,1,0,0-.709Z" transform="translate(-10.451 -7.058)"/>
  </g>
</svg>