<svg width="40" height="24" viewBox="0 0 40 24" fill="none" xmlns="http://www.w3.org/2000/svg">
<path fill-rule="evenodd" clip-rule="evenodd" d="M37.5257 24H2.47429C1.11344 24 0 22.8716 0 21.4924V2.50762C0 1.12843 1.11344 0 2.47429 0H37.5257C38.8866 0 40 1.12843 40 2.50762V21.4924C40 22.8716 38.8866 24 37.5257 24" fill="#055E7C"/>
<path fill-rule="evenodd" clip-rule="evenodd" d="M33.8878 10.8061C33.6407 10.8061 33.4166 10.9031 33.2524 11.0601L29.5953 13.9651L28.9026 13.4225L25.921 11.0876L25.8679 11.043C25.8226 11.0061 25.8166 11.0014 25.7434 10.9492C25.5832 10.8321 25.4034 10.7563 25.1964 10.7563C24.7135 10.7563 24.3223 11.1525 24.3223 11.6411C24.3223 11.9135 24.4438 12.157 24.6349 12.3192L24.635 12.3194L24.6362 12.3204C24.6445 12.3272 24.6529 12.3339 24.6613 12.3406L28.0567 15.0869L28.653 15.5692L28.6552 17.9721L28.6555 17.9763C28.6599 18.4589 29.059 18.8488 29.5507 18.8488C30.0361 18.8488 30.431 18.4688 30.4454 17.9945L30.4471 17.9915V15.571L34.0653 12.7254L34.1062 12.6916L34.212 12.6047C34.2345 12.5863 34.264 12.5642 34.2844 12.5446L34.427 12.4269C34.6433 12.2428 34.8002 12.0004 34.8002 11.7035C34.8002 11.2079 34.3916 10.8061 33.8878 10.8061" fill="#00BCD4"/>
<path fill-rule="evenodd" clip-rule="evenodd" d="M25.3111 17.4729L21.0155 11.1302C20.8513 10.9041 20.5784 10.7563 20.2743 10.7563C19.774 10.7563 19.3685 11.1553 19.3685 11.6472C19.3685 11.8457 19.4344 12.0289 19.5458 12.177L21.5791 15.0568L17.7123 15.0506C17.4846 15.0568 17.1256 15.198 16.8658 15.5147L15.5042 17.4177C15.3626 17.5705 15.2761 17.7737 15.2761 17.9969C15.2761 18.4718 15.6675 18.8568 16.1504 18.8568C16.4395 18.8568 16.6958 18.7187 16.855 18.5058L16.8662 18.4993L18.0937 16.8938H22.872L23.8596 18.4147C24.0074 18.6782 24.2924 18.8568 24.6201 18.8568C25.0993 18.8568 25.4879 18.4746 25.4879 18.0031C25.4879 17.8252 25.4325 17.6601 25.3378 17.5234C25.3299 17.5049 25.321 17.488 25.3111 17.4729" fill="#00BCD4"/>
<path fill-rule="evenodd" clip-rule="evenodd" d="M13.589 10.7559C13.5828 10.7558 13.5764 10.7559 13.5704 10.7559H6.90716C6.40615 10.7559 6 11.1554 6 11.6482C6 11.8277 6.05429 11.9943 6.14694 12.1342C6.27308 12.3097 6.45041 12.4355 6.67598 12.5104C6.7499 12.5295 6.8272 12.5407 6.90716 12.5407H11.1025H13.4821L13.6288 12.5404H13.6428C13.6667 12.5406 13.6903 12.5417 13.7136 12.544C14.0836 12.5813 14.3722 12.8887 14.3722 13.2625C14.3722 13.6582 14.0488 13.9791 13.6478 13.9844L13.587 13.9849H11.0994H6.93269H6.8629C6.32427 13.9849 6 14.397 6 14.8663V17.9518C6 18.4393 6.40217 18.8351 6.89787 18.8351C7.38192 18.8351 7.77641 18.4569 7.79426 17.985V17.9185V15.7795H13.5904L13.6155 15.7781C13.6162 15.7781 13.6168 15.7779 13.6174 15.7778C14.9946 15.7409 16.0995 14.6312 16.0995 13.2679C16.0995 11.8949 14.9793 10.7783 13.589 10.7559" fill="#00BCD4"/>
<path fill-rule="evenodd" clip-rule="evenodd" d="M7.07104 7.69455H7.94678L7.50995 6.37734L7.07104 7.69455ZM7.88131 5.75781L9.01567 8.85254H8.3363L8.12223 8.21635H6.90053L6.69517 8.85254H6.0127L7.13319 5.75781H7.88131Z" fill="white"/>
<path fill-rule="evenodd" clip-rule="evenodd" d="M11.3111 8.29337C11.6659 8.29337 11.8338 8.17554 11.8338 7.89256C11.8338 7.59058 11.6659 7.48276 11.3074 7.48276H10.546V8.29337H11.3111ZM11.2854 6.95362C11.5955 6.95362 11.7451 6.85479 11.7451 6.61709C11.7451 6.37736 11.5926 6.29523 11.2805 6.29523H10.546V6.95362H11.2854ZM9.92407 5.75781H11.4078C12.0597 5.75781 12.3964 6.03716 12.3964 6.54027C12.3964 6.84995 12.2747 7.06153 12.0206 7.17791C12.349 7.30721 12.507 7.54781 12.507 7.91089C12.507 8.49976 12.1037 8.85254 11.3603 8.85254H9.92407V5.75781Z" fill="white"/>
<path fill-rule="evenodd" clip-rule="evenodd" d="M14.2051 7.69455H15.0809L14.6436 6.37734L14.2051 7.69455ZM15.0149 5.75781L16.1498 8.85254H15.4712L15.2561 8.21635H14.0347L13.8289 8.85254H13.1475L14.2666 5.75781H15.0149Z" fill="white"/>
<path fill-rule="evenodd" clip-rule="evenodd" d="M16.4421 6.44412H17.05V5.14258H16.4421V6.44412Z" fill="#EB2227"/>
</svg>
