<svg width="40" height="24" viewBox="0 0 40 24" fill="none" xmlns="http://www.w3.org/2000/svg">
<path fill-rule="evenodd" clip-rule="evenodd" d="M37.5257 24H2.47429C1.11344 24 0 22.8716 0 21.4924V2.50762C0 1.12843 1.11344 0 2.47429 0H37.5257C38.8866 0 40 1.12843 40 2.50762V21.4924C40 22.8716 38.8866 24 37.5257 24Z" fill="#E1232E"/>
<path d="M24.7228 11.1148V13.2714H22.5752C22.3549 13.2714 22.1897 13.0916 22.1897 12.8843V11.1286C22.1897 10.9074 22.3687 10.7415 22.5752 10.7415H24.3235C24.5576 10.7277 24.7228 10.8936 24.7228 11.1148Z" fill="white"/>
<path d="M34.7864 11.9856H33.7126C33.7126 10.7 32.6663 9.64932 31.386 9.64932C30.3672 9.64932 29.4724 10.3129 29.1695 11.2806C29.1007 11.5156 29.0594 11.7506 29.0594 11.9856V15.414H29.0319C28.4537 15.414 27.9856 14.944 27.9856 14.3634V11.9856H27.9994C27.9994 11.0456 28.3848 10.147 29.0732 9.49726C29.7064 8.90282 30.5324 8.57104 31.3997 8.57104C33.272 8.57104 34.7864 10.1055 34.7864 11.9856Z" fill="white"/>
<path d="M34.8 15.4144L33.2857 15.4282L32.914 15.055L32.088 14.2255L30.9453 13.0781H32.4597L34.8 15.4144Z" fill="white"/>
<path d="M25.0808 14.3357H21.8456C21.4463 14.3357 21.1297 14.0178 21.1297 13.6169V10.3682C21.1297 9.96729 21.4463 9.64932 21.8456 9.64932H25.0808C25.48 9.64932 25.7966 9.96729 25.7966 10.3682V13.6169L26.8704 14.6952V9.62168C26.8704 9.04107 26.4024 8.57104 25.8242 8.57104H21.1022C20.524 8.57104 20.0559 9.04107 20.0559 9.62168V14.3634C20.0559 14.944 20.524 15.414 21.1022 15.414H26.1546L25.0808 14.3357Z" fill="white"/>
<path d="M11.9335 15.4279H10.4191L7.25277 12.2345V15.4279H6V8.57104H7.25277V11.6262L10.2952 8.57104H11.782L8.47801 11.8612L11.9335 15.4279Z" fill="white"/>
<path d="M17.5919 8.57104H18.8171V15.4279H17.5919V12.4557H14.0951V15.4279H12.8699V8.57104H14.0951V11.4327H17.5919V8.57104Z" fill="white"/>
</svg>
