<svg width="40" height="24" viewBox="0 0 40 24" fill="none" xmlns="http://www.w3.org/2000/svg">
<path fill-rule="evenodd" clip-rule="evenodd" d="M37.5257 24H2.47429C1.11344 24 0 22.8716 0 21.4924V2.50762C0 1.12843 1.11344 0 2.47429 0H37.5257C38.8866 0 40 1.12843 40 2.50762V21.4924C40 22.8716 38.8866 24 37.5257 24" fill="black"/>
<path fill-rule="evenodd" clip-rule="evenodd" d="M16.9377 17.6287H23.9748V6.3501H16.9377V17.6287Z" fill="#FF5F00"/>
<path fill-rule="evenodd" clip-rule="evenodd" d="M17.6625 11.9898C17.6607 9.78926 18.6902 7.71026 20.4542 6.35149C17.2804 3.9039 12.6854 4.44442 10.191 7.55884C7.69677 10.6735 8.24759 15.1825 11.4216 17.6301C14.0721 19.6742 17.8036 19.6742 20.4542 17.6301C18.6896 16.2711 17.6601 14.1909 17.6625 11.9898" fill="#EB001B"/>
<path fill-rule="evenodd" clip-rule="evenodd" d="M32.1121 16.8227V16.1561H32.032L31.9382 16.6322L31.8444 16.1561H31.7637V16.8227H31.8218V16.318L31.9091 16.7513H31.9692L32.0563 16.318V16.8227H32.1121ZM31.5962 16.8227V16.2703H31.7079V16.156H31.4421V16.2703H31.5473V16.8227H31.5962Z" fill="#F79E1B"/>
<path fill-rule="evenodd" clip-rule="evenodd" d="M32.2806 11.9899C32.2804 15.9511 29.008 19.1623 24.9713 19.1623C23.3329 19.1621 21.7421 18.622 20.4541 17.6282C23.6279 15.1805 24.1789 10.6716 21.6845 7.55697C21.3247 7.1079 20.9117 6.70246 20.4541 6.34962C23.6275 3.90143 28.2224 4.44116 30.7175 7.55518C31.73 8.81912 32.2804 10.3801 32.2806 11.9879V11.9899Z" fill="#F79E1B"/>
</svg>
