<svg width="40" height="24" viewBox="0 0 40 24" fill="none" xmlns="http://www.w3.org/2000/svg">
<path fill-rule="evenodd" clip-rule="evenodd" d="M1.22791 21.7223C0.939557 22.9803 1.72798 24 2.98891 24H12.6559C13.9168 24 15.1727 22.9803 15.4611 21.7223L19.9181 2.27766C20.2064 1.01976 19.418 0 18.1572 0H8.49008C7.2292 0 5.97327 1.01976 5.68492 2.27766L1.22791 21.7223Z" fill="#DC1F2A"/>
<path fill-rule="evenodd" clip-rule="evenodd" d="M9.65955 21.7223C9.3712 22.9803 10.1596 24 11.4206 24H21.0876C22.3485 24 23.6044 22.9803 23.8927 21.7223L28.3497 2.27766C28.6381 1.01976 27.8497 0 26.5888 0H16.9217C15.6608 0 14.4049 1.01976 14.1166 2.27766L9.65955 21.7223Z" fill="#1A457F"/>
<path fill-rule="evenodd" clip-rule="evenodd" d="M19.3883 21.7223C19.1 22.9803 19.8884 24 21.1493 24H30.8163C32.0772 24 33.3331 22.9803 33.6214 21.7223L38.0785 2.27766C38.3668 1.01976 37.5784 0 36.3175 0H26.6505C25.3895 0 24.1337 1.01976 23.8453 2.27766L19.3883 21.7223Z" fill="#05798A"/>
<path fill-rule="evenodd" clip-rule="evenodd" d="M25.6564 17.7674C25.9201 17.7674 26.1638 17.7696 26.4074 17.7642C26.4331 17.7637 26.4719 17.7234 26.481 17.6941C26.5351 17.5193 26.5827 17.3425 26.6317 17.166C26.6429 17.1255 26.6508 17.084 26.6628 17.0311C26.4373 17.0311 26.2249 17.0295 26.0124 17.0316C25.8297 17.0334 25.8746 17.0021 25.8227 17.1737C25.7645 17.3659 25.7139 17.5606 25.6564 17.7674M27.4816 14.1258C27.2216 14.1258 26.9728 14.1244 26.724 14.1283C26.7039 14.1286 26.6751 14.1618 26.6663 14.1856C26.6407 14.2552 26.6229 14.3278 26.6025 14.3993C26.5389 14.6238 26.4756 14.8484 26.4093 15.0827C26.4409 15.0743 26.4584 15.0696 26.476 15.065C26.7255 14.9996 26.9757 14.9365 27.2239 14.8663C27.256 14.8572 27.2911 14.8151 27.3017 14.781C27.3561 14.6064 27.4031 14.4297 27.452 14.2534C27.4624 14.2156 27.4698 14.177 27.4816 14.1258M27.0775 15.5765C26.8136 15.5765 26.5672 15.5752 26.3208 15.5787C26.2994 15.579 26.2654 15.6073 26.2592 15.6289C26.1707 15.9409 26.0859 16.2541 25.9989 16.5719C26.0163 16.5719 26.0261 16.5747 26.0333 16.5715C26.2901 16.4571 26.5517 16.3585 26.8305 16.3126C26.8495 16.3094 26.8756 16.289 26.8808 16.2713C26.9467 16.0458 27.0094 15.8194 27.0775 15.5765M25.6787 14.1321C25.606 14.1264 25.5458 14.1217 25.4719 14.116C25.5109 13.9764 25.547 13.8463 25.5835 13.7162C25.6137 13.6087 25.6411 13.5002 25.6771 13.3946C25.6866 13.3668 25.7231 13.329 25.7475 13.3287C26.0902 13.3252 26.4329 13.3274 26.7756 13.3286C26.7841 13.3287 26.7926 13.3351 26.8101 13.3423C26.7996 13.4214 26.7888 13.5024 26.7762 13.597C26.8798 13.5553 26.9702 13.5187 27.0607 13.4827C27.3363 13.3733 27.6205 13.3177 27.9184 13.3234C28.2703 13.3301 28.6224 13.3247 28.9745 13.3253C29.0132 13.3254 29.052 13.3304 29.1019 13.3338C29.0931 13.3738 29.0882 13.4033 29.0801 13.432C29.0245 13.6323 28.9642 13.8314 28.9143 14.033C28.8961 14.1065 28.8613 14.1332 28.7927 14.1238C28.7056 14.1119 28.6638 14.1444 28.6386 14.2349C28.3186 15.3824 27.9942 16.5287 27.6711 17.6753C27.6638 17.7013 27.6599 17.7284 27.6527 17.7628C27.7195 17.7662 27.7799 17.7692 27.8525 17.7729C27.8457 17.8077 27.8421 17.8367 27.8344 17.8646C27.7825 18.0498 27.7263 18.234 27.6791 18.4204C27.6611 18.4917 27.6288 18.5225 27.558 18.5101C27.4639 18.4936 27.4243 18.5335 27.4018 18.628C27.3543 18.8281 27.348 18.8267 27.1434 18.8267H26.3745H26.2604C26.2892 18.7179 26.3141 18.6234 26.3426 18.5154H24.2513C24.2513 18.4828 24.2468 18.4613 24.252 18.4424C24.3086 18.2392 24.3691 18.037 24.4229 17.833C24.4407 17.7657 24.4844 17.76 24.5349 17.7687C24.6316 17.7855 24.666 17.74 24.691 17.6504C25.0124 16.4967 25.3377 15.3442 25.662 14.1913C25.6661 14.1768 25.6702 14.1624 25.6787 14.1321" fill="#FEFEFE"/>
<path fill-rule="evenodd" clip-rule="evenodd" d="M7.5535 6.17053C7.51296 6.36965 7.47562 6.55453 7.43772 6.73932C7.22041 7.79861 6.99911 8.85707 6.78995 9.91793C6.76076 10.0659 6.76739 10.2306 6.7984 10.3788C6.85943 10.6706 7.08576 10.8418 7.43155 10.8697C7.82074 10.9011 8.18924 10.8369 8.49869 10.5701C8.73871 10.3632 8.84593 10.0873 8.90764 9.78455C9.14771 8.60625 9.39073 7.42852 9.63246 6.25053C9.64153 6.20646 9.64889 6.16907 9.7106 6.16954C10.0595 6.17216 10.4084 6.17101 10.7573 6.17153C10.7692 6.17153 10.7812 6.17582 10.7982 6.17906C10.7982 6.19819 10.8013 6.2166 10.7978 6.23359C10.5412 7.47825 10.2925 8.72468 10.0243 9.96677C9.80445 10.9853 9.15776 11.5882 8.15907 11.8076C7.65337 11.9186 7.14067 11.9293 6.63611 11.7918C6.10313 11.6466 5.72353 11.3316 5.59997 10.765C5.53174 10.4521 5.57104 10.1401 5.63518 9.82999C5.88054 8.64327 6.12496 7.45634 6.36695 6.26889C6.38214 6.19427 6.40734 6.16729 6.4861 6.1685C6.80711 6.17336 7.12833 6.17053 7.44944 6.17053H7.5535Z" fill="#FEFEFE"/>
<path fill-rule="evenodd" clip-rule="evenodd" d="M21.1108 15.6253C21.1611 15.6253 21.1972 15.6252 21.2334 15.6253C21.6904 15.6275 22.1473 15.6315 22.6043 15.6291C22.6495 15.6288 22.7222 15.5997 22.7347 15.566C22.7845 15.4317 22.8156 15.2903 22.8567 15.1406C22.3241 15.1406 21.8089 15.1401 21.2935 15.1423C21.2725 15.1424 21.2381 15.1635 21.2326 15.1818C21.1902 15.3236 21.1534 15.4673 21.1108 15.6253M23.1523 14.0495C23.1277 14.046 23.1159 14.0427 23.104 14.0427C22.6045 14.0425 22.1049 14.0435 21.6053 14.0409C21.5476 14.0406 21.531 14.0691 21.5186 14.1144C21.4723 14.2815 21.4249 14.4484 21.3787 14.6157C21.3733 14.6351 21.3734 14.656 21.3699 14.684C21.3902 14.6776 21.402 14.6755 21.4123 14.6703C21.6377 14.5587 21.8754 14.5093 22.1268 14.5136C22.4011 14.5183 22.6757 14.5163 22.95 14.5124C22.981 14.512 23.0309 14.4866 23.0389 14.4619C23.0816 14.3299 23.1137 14.1944 23.1523 14.0495M21.6235 13.311C21.6109 13.4375 21.5996 13.5503 21.5867 13.6786C21.7002 13.6134 21.7974 13.5555 21.8964 13.5013C22.1671 13.3531 22.4543 13.2798 22.7651 13.2841C23.2837 13.2913 23.8024 13.2859 24.3211 13.2864C24.3599 13.2865 24.3987 13.2909 24.4484 13.2939C24.4372 13.3439 24.4301 13.3826 24.4198 13.4204C24.1982 14.2313 23.9731 15.0411 23.7559 15.8532C23.6859 16.115 23.5086 16.2355 23.2632 16.2798C23.1758 16.2956 23.0855 16.3006 22.9965 16.3008C22.3389 16.3025 21.6812 16.3035 21.0236 16.2996C20.9424 16.2991 20.9155 16.3271 20.8958 16.4016C20.7502 16.9507 20.5998 17.4985 20.4513 18.047C20.4118 18.1932 20.4317 18.2202 20.5787 18.221C20.7037 18.2215 20.8287 18.2211 20.9705 18.2211C20.9185 18.4153 20.8742 18.5886 20.8236 18.7599C20.8178 18.7796 20.7769 18.8011 20.7525 18.8009C20.3606 18.7975 19.9688 18.7923 19.5771 18.7827C19.5203 18.7813 19.4615 18.7609 19.4082 18.7384C19.2802 18.6845 19.2286 18.5895 19.2636 18.454C19.3716 18.0362 19.4847 17.6198 19.5966 17.203C19.9362 15.9376 20.2772 14.6725 20.6142 13.4064C20.6351 13.328 20.6657 13.3029 20.7451 13.3044C21.0043 13.3094 21.2637 13.3061 21.5231 13.3064C21.5533 13.3065 21.5834 13.3091 21.6235 13.311" fill="#FEFEFE"/>
<path fill-rule="evenodd" clip-rule="evenodd" d="M25.1467 8.86383C25.1718 8.8677 25.1837 8.87116 25.1955 8.87116C25.5597 8.87131 25.9242 8.87942 26.2881 8.86812C26.5233 8.8608 26.7479 8.79617 26.9119 8.60836C27.1186 8.37186 27.1889 8.08663 27.1783 7.77834C27.1723 7.60412 27.0883 7.46959 26.9279 7.4081C26.8031 7.36031 26.6674 7.32271 26.5351 7.31743C26.2023 7.3041 25.8687 7.31283 25.5353 7.30974C25.4765 7.30922 25.4553 7.33322 25.4446 7.38812C25.3982 7.62546 25.3476 7.86195 25.2996 8.09902C25.2486 8.35068 25.1989 8.60255 25.1467 8.86383M23.4314 11.773C23.4793 11.534 23.5241 11.3063 23.5705 11.0788C23.8211 9.8479 24.0722 8.6171 24.3228 7.38626C24.3866 7.07321 24.45 6.76016 24.5121 6.4468C24.5232 6.3906 24.5454 6.36503 24.6091 6.36524C25.4272 6.36801 26.2453 6.36335 27.0633 6.37052C27.3236 6.37277 27.5775 6.43028 27.8087 6.56084C28.1343 6.74474 28.3055 7.03661 28.3313 7.40173C28.3732 7.9941 28.2428 8.54751 27.8751 9.02348C27.5035 9.50453 27.0124 9.78343 26.4054 9.81475C25.9559 9.83792 25.5047 9.82934 25.0543 9.82997C24.9718 9.83007 24.939 9.8525 24.9224 9.93841C24.809 10.5229 24.6887 11.1062 24.572 11.69C24.5594 11.7536 24.5355 11.7825 24.4634 11.7815C24.1485 11.7769 23.8337 11.7797 23.5188 11.7793C23.4946 11.7792 23.4704 11.7759 23.4314 11.773" fill="#FEFEFE"/>
<path fill-rule="evenodd" clip-rule="evenodd" d="M29.2963 16.7627H28.2485C28.3151 16.5273 28.3761 16.3037 28.4447 16.0822C28.4507 16.0628 28.5054 16.0492 28.5376 16.049C28.8649 16.0466 29.1922 16.045 29.5194 16.0494C29.5911 16.0504 29.623 16.0289 29.6408 15.9596C29.6866 15.7801 29.739 15.6024 29.7929 15.4092H28.6367C28.6463 15.3653 28.6513 15.3361 28.6592 15.3077C28.709 15.1283 28.7611 14.9496 28.8087 14.7697C28.8245 14.7101 28.85 14.6837 28.9164 14.6838C29.9878 14.6859 31.0592 14.6853 32.1306 14.6856C32.1546 14.6856 32.1785 14.6903 32.2118 14.6939C32.2045 14.7297 32.2001 14.7595 32.1921 14.7884C32.1426 14.9678 32.0897 15.1463 32.0435 15.3266C32.0273 15.3896 31.9981 15.4089 31.9343 15.4082C31.6349 15.4049 31.3353 15.4088 31.0358 15.4052C30.9678 15.4044 30.9383 15.4253 30.9214 15.4926C30.8755 15.675 30.8216 15.8554 30.7678 16.0477H31.8333C31.817 16.1109 31.8045 16.1633 31.7899 16.2151C31.7464 16.3705 31.6985 16.5247 31.6597 16.6812C31.6432 16.7483 31.6137 16.7703 31.5457 16.7697C31.2092 16.7665 30.8725 16.7707 30.5361 16.7662C30.4614 16.7653 30.4174 16.7896 30.3807 16.8527C30.3236 16.9506 30.2588 17.0439 30.1852 17.158C30.3542 17.158 30.5013 17.1613 30.6481 17.1565C30.726 17.154 30.7626 17.1759 30.7745 17.2603C30.8079 17.4967 30.853 17.7315 30.8894 17.9676C30.9042 18.0636 30.9634 18.0989 31.0485 18.1032C31.1218 18.1068 31.1955 18.104 31.2772 18.104C31.2728 18.1372 31.2724 18.158 31.2671 18.1774C31.2164 18.3629 31.164 18.548 31.1143 18.7338C31.1 18.7869 31.0729 18.8075 31.0164 18.8068C30.788 18.8039 30.5594 18.8097 30.331 18.8046C30.1315 18.8 29.9433 18.7212 29.9108 18.4513C29.8821 18.2133 29.8169 17.9798 29.7642 17.7274C29.5825 18.0023 29.4058 18.2603 29.239 18.5245C29.1078 18.7323 28.9306 18.8344 28.6846 18.8292C28.3853 18.8228 28.0857 18.827 27.7862 18.8267C27.7529 18.8266 27.7198 18.8267 27.6707 18.8267C27.696 18.7307 27.7169 18.648 27.7397 18.5657C27.7736 18.4432 27.8112 18.3215 27.8424 18.1982C27.8557 18.1462 27.8821 18.1263 27.9333 18.1276C28.0104 18.1294 28.0877 18.1252 28.1648 18.1282C28.304 18.1336 28.4141 18.0733 28.4905 17.9643C28.7591 17.5803 29.022 17.1923 29.2866 16.8055C29.2913 16.7987 29.2908 16.7882 29.2963 16.7627" fill="#FEFEFE"/>
<path fill-rule="evenodd" clip-rule="evenodd" d="M32.1177 8.43869H33.2498C33.2604 8.80585 33.2749 9.16936 33.2803 9.53302C33.2855 9.89302 33.2814 10.2532 33.2814 10.6133C33.2933 10.6145 33.3051 10.6157 33.317 10.6169C33.4136 10.3899 33.5105 10.1631 33.6069 9.936C33.8058 9.46734 34.0061 8.99926 34.2015 8.52909C34.234 8.45103 34.2756 8.42316 34.36 8.42515C34.61 8.431 34.8603 8.42708 35.1105 8.42745C35.1434 8.4275 35.1763 8.43017 35.2248 8.43236C35.2069 8.47534 35.1959 8.50609 35.1817 8.53521C34.5138 9.90164 33.8476 11.269 33.1764 12.6337C32.9368 13.1208 32.6541 13.5796 32.2582 13.9583C31.9574 14.246 31.6023 14.4042 31.1899 14.4342C31.0899 14.4414 30.9898 14.4463 30.8738 14.4533C30.8932 14.3017 30.9099 14.1703 30.9269 14.0389C30.9321 13.9988 30.9323 13.957 30.9451 13.9196C30.9549 13.8909 30.9757 13.854 31.0006 13.8444C31.3384 13.7151 31.5779 13.4684 31.7838 13.1821C32.0333 12.835 32.2173 12.45 32.383 12.0585C32.4255 11.9581 32.3878 11.8208 32.3791 11.701C32.3588 11.425 32.3335 11.1495 32.3108 10.8738C32.2816 10.5206 32.2525 10.1674 32.2241 9.81422C32.1968 9.4733 32.1704 9.13228 32.1438 8.79132C32.1351 8.68 32.1273 8.56862 32.1177 8.43869" fill="#FEFEFE"/>
<path fill-rule="evenodd" clip-rule="evenodd" d="M30.056 9.88901C30.0354 9.81863 30.0116 9.67249 29.9505 9.54444C29.8632 9.36148 29.682 9.30496 29.4955 9.38214C29.431 9.4088 29.3666 9.4453 29.3144 9.49142C28.9868 9.78046 28.8522 10.1587 28.8429 10.586C28.8397 10.7314 28.8699 10.8769 28.9552 11.0029C29.0504 11.1435 29.1968 11.1989 29.3582 11.1509C29.4996 11.109 29.6093 11.0183 29.7014 10.9072C29.9272 10.6349 30.0356 10.3172 30.056 9.88901M30.1885 8.96334C30.2483 8.92245 30.3104 8.887 30.3644 8.84177C30.4925 8.73427 30.6343 8.68235 30.8039 8.67937C30.9882 8.67613 31.1721 8.64711 31.3563 8.63085C31.3953 8.62739 31.4348 8.63032 31.484 8.63032C31.4326 8.87163 31.3844 9.1019 31.3342 9.33171C31.1633 10.1136 30.9903 10.8951 30.8224 11.6777C30.8051 11.7582 30.7765 11.7839 30.6954 11.7808C30.4024 11.7694 30.109 11.7674 29.816 11.756C29.7762 11.7544 29.7325 11.7259 29.6999 11.6985C29.6603 11.6651 29.6306 11.6199 29.604 11.5884C29.3924 11.6504 29.1907 11.7166 28.9854 11.7673C28.798 11.8135 28.6055 11.8189 28.4169 11.7709C28.0756 11.6839 27.8984 11.4411 27.8269 11.1101C27.7345 10.6826 27.8147 10.2696 27.9486 9.86415C28.0368 9.59717 28.1638 9.34985 28.3287 9.12109C28.5456 8.82034 28.8543 8.69187 29.2007 8.62928C29.5018 8.57485 29.7668 8.66834 30.012 8.83717C30.0704 8.87738 30.1275 8.91963 30.1885 8.96334" fill="#FEFEFE"/>
<path fill-rule="evenodd" clip-rule="evenodd" d="M19.1037 18.1802C19.0468 18.3891 18.9954 18.584 18.9386 18.7771C18.9328 18.7968 18.895 18.8195 18.8721 18.8196C18.2824 18.8217 17.6926 18.8254 17.103 18.8184C16.8537 18.8154 16.721 18.6416 16.7758 18.3876C16.8379 18.0996 16.9205 17.816 16.9955 17.5308C17.0404 17.36 17.0879 17.1899 17.1382 17.0047H16.4177C16.4505 16.8785 16.4789 16.7683 16.5079 16.6583C16.5325 16.5652 16.5598 16.4729 16.5824 16.3793C16.5946 16.3288 16.6191 16.3101 16.6725 16.311C16.867 16.3142 17.0615 16.3138 17.2559 16.3105C17.2832 16.31 17.3284 16.2913 17.3342 16.2717C17.3919 16.0757 17.4431 15.8777 17.4996 15.6674H16.8181C16.8238 15.6324 16.8257 15.6086 16.8318 15.5859C16.8785 15.4088 16.9276 15.2322 16.9727 15.0547C16.9871 14.9981 17.0125 14.9677 17.0741 14.9759C17.1014 14.9796 17.1296 14.9765 17.1574 14.9765H19.7601H19.8921C19.8808 15.0287 19.8738 15.0702 19.8629 15.1106C19.8218 15.2635 19.7761 15.4153 19.7391 15.5691C19.7221 15.6399 19.6965 15.6695 19.6168 15.6681C19.2927 15.6624 18.9684 15.6688 18.6444 15.6634C18.5658 15.6621 18.5387 15.6886 18.5214 15.7613C18.4783 15.9418 18.4263 16.1201 18.3748 16.3108H19.4944C19.4902 16.3438 19.4898 16.3675 19.4839 16.3896C19.4377 16.5636 19.3882 16.7368 19.3448 16.9116C19.328 16.9793 19.2992 17.0068 19.2256 17.0057C18.9107 17.0015 18.5957 17.0072 18.2809 17.0018C18.2021 17.0004 18.1765 17.0293 18.1581 17.1004C18.0835 17.3888 18.0033 17.676 17.9243 17.9634C17.882 18.1169 17.9253 18.1789 18.0866 18.1801C18.3645 18.1823 18.6423 18.1804 18.9202 18.1802C18.9754 18.1802 19.0306 18.1802 19.1037 18.1802" fill="#FEFEFE"/>
<path fill-rule="evenodd" clip-rule="evenodd" d="M17.1392 10.4634C17.1392 10.5008 17.1374 10.5382 17.1394 10.5754C17.1559 10.8706 17.3244 11.0604 17.6124 11.1094C17.9477 11.1664 18.2779 11.0082 18.4611 10.6852C18.6474 10.3568 18.7332 9.99953 18.7089 9.62008C18.6922 9.35717 18.536 9.16047 18.2923 9.11456C17.9802 9.05579 17.7003 9.12862 17.4928 9.38562C17.2405 9.69804 17.1631 10.0733 17.1392 10.4634M17.5904 11.8592C17.3306 11.8614 17.0786 11.8234 16.849 11.6937C16.4333 11.4588 16.2541 11.0808 16.2522 10.6177C16.2501 10.1094 16.3796 9.63221 16.663 9.20643C17.1893 8.41585 18.0755 8.21056 18.7888 8.42683C19.2484 8.56612 19.5615 8.97287 19.5863 9.456C19.6229 10.1712 19.4373 10.8129 18.922 11.3277C18.5558 11.6936 18.1038 11.8597 17.5904 11.8592" fill="#FEFEFE"/>
<path fill-rule="evenodd" clip-rule="evenodd" d="M20.6745 11.7712H19.8259C19.8764 11.5117 19.9248 11.2589 19.9748 11.0066C20.1394 10.1777 20.3055 9.34935 20.4674 8.52002C20.4813 8.44885 20.5085 8.42904 20.5763 8.42998C20.8166 8.43322 21.057 8.43123 21.3131 8.43123C21.2856 8.58104 21.2602 8.71934 21.2348 8.85764C21.2451 8.86669 21.2553 8.87573 21.2657 8.88483C21.2772 8.86072 21.284 8.83233 21.301 8.81314C21.6863 8.37801 22.1647 8.26255 22.7118 8.40922C22.9747 8.47965 23.1701 8.74553 23.2051 9.02893C23.236 9.27923 23.1755 9.51699 23.1285 9.75699C23.0019 10.4025 22.8713 11.0472 22.7468 11.6932C22.7327 11.7662 22.7029 11.7817 22.6371 11.7807C22.421 11.7775 22.2048 11.7797 21.9886 11.7792C21.9552 11.7792 21.9217 11.7756 21.875 11.7729C21.905 11.6176 21.9335 11.4696 21.9624 11.3217C22.0733 10.7547 22.1844 10.1877 22.2953 9.62067C22.2971 9.61152 22.2992 9.60237 22.3004 9.59317C22.3462 9.25487 22.2002 9.08933 21.8631 9.09743C21.4671 9.10689 21.1606 9.36598 21.0709 9.7916C20.9403 10.4116 20.8225 11.0344 20.6991 11.6559C20.6919 11.6924 20.6836 11.7287 20.6745 11.7712" fill="#FEFEFE"/>
<path fill-rule="evenodd" clip-rule="evenodd" d="M11.9259 8.43337C11.896 8.59248 11.8693 8.73501 11.8381 8.90176C11.8767 8.85747 11.8999 8.82997 11.9241 8.80346C12.3008 8.39169 12.7615 8.25799 13.2936 8.4055C13.6212 8.49627 13.8319 8.77073 13.8178 9.11243C13.8063 9.38976 13.754 9.66683 13.7027 9.94077C13.5947 10.5177 13.4755 11.0925 13.3606 11.6681C13.354 11.7014 13.3457 11.7344 13.3373 11.7716H12.4908C12.523 11.6053 12.5534 11.4449 12.5851 11.2847C12.6911 10.7485 12.7996 10.2128 12.9018 9.67577C12.919 9.58563 12.9183 9.48952 12.9104 9.39755C12.8957 9.22762 12.7932 9.12811 12.6258 9.10448C12.2254 9.04801 11.8749 9.24377 11.7377 9.63081C11.6625 9.84278 11.6269 10.0696 11.5817 10.2915C11.4863 10.7603 11.3959 11.2302 11.3047 11.6999C11.2965 11.7424 11.2919 11.7766 11.2346 11.7762C10.9757 11.7741 10.7168 11.7752 10.4421 11.7752C10.4715 11.6219 10.4984 11.4774 10.5269 11.3333C10.7102 10.4068 10.8953 9.48053 11.0753 8.55337C11.0936 8.45873 11.127 8.4273 11.2242 8.43081C11.4518 8.43886 11.6799 8.43337 11.9259 8.43337" fill="#FEFEFE"/>
<path fill-rule="evenodd" clip-rule="evenodd" d="M23.1646 18.2522C23.1135 18.4381 23.0684 18.6087 23.0176 18.7775C23.0115 18.798 22.9746 18.8221 22.9518 18.8223C22.5535 18.8248 22.1551 18.8289 21.757 18.8215C21.5426 18.8174 21.3959 18.6596 21.3962 18.4383C21.3967 18.1334 21.4082 17.8284 21.418 17.5235C21.428 17.2094 21.4417 16.8954 21.4536 16.5813C21.4583 16.4573 21.4582 16.4571 21.5775 16.4571C21.8214 16.457 22.0653 16.4571 22.3093 16.4571H22.4239C22.4176 16.596 22.4119 16.7245 22.4057 16.8643C22.5083 16.8643 22.603 16.8685 22.6971 16.863C22.7709 16.8586 22.8144 16.8205 22.8346 16.7388C22.8994 16.4767 22.9034 16.4777 23.1752 16.4777H23.722C23.6494 16.6888 23.6017 16.8897 23.5128 17.07C23.4083 17.2819 23.2024 17.3654 22.9767 17.3836C22.817 17.3965 22.6559 17.3949 22.4955 17.393C22.4189 17.3921 22.3847 17.4096 22.3875 17.4964C22.3935 17.683 22.3884 17.8699 22.3887 18.0568C22.3888 18.1693 22.4242 18.2155 22.5358 18.2335C22.6114 18.2458 22.6889 18.2498 22.7657 18.2514C22.8917 18.2543 23.0179 18.2522 23.1646 18.2522" fill="#FEFEFE"/>
<path fill-rule="evenodd" clip-rule="evenodd" d="M15.8158 8.43317C15.7782 8.61461 15.7452 8.77806 15.7104 8.94114C15.5144 9.85811 15.3172 10.7749 15.123 11.6923C15.1094 11.7567 15.0859 11.7785 15.0203 11.7775C14.7734 11.7738 14.5264 11.7762 14.2794 11.7758C14.2525 11.7758 14.2257 11.7724 14.1902 11.77C14.2488 11.4921 14.3054 11.2221 14.3628 10.9522C14.5334 10.1504 14.7054 9.34888 14.8734 8.54653C14.8909 8.46329 14.9176 8.42794 15.01 8.43055C15.2718 8.43798 15.5338 8.43317 15.8158 8.43317" fill="#FEFEFE"/>
<path fill-rule="evenodd" clip-rule="evenodd" d="M16.9956 14.7468C17.0556 14.5274 17.1098 14.3243 17.1686 14.1226C17.1738 14.1048 17.2073 14.0885 17.2299 14.0844C17.2658 14.078 17.3037 14.0829 17.3407 14.0821C17.473 14.0795 17.5724 14.03 17.645 13.9082C17.7545 13.7245 17.8777 13.549 17.9995 13.3731C18.019 13.3449 18.0609 13.3162 18.0928 13.3158C18.426 13.3118 18.7593 13.3135 19.0926 13.314C19.1041 13.3141 19.1157 13.3186 19.141 13.324C19.0693 13.4534 19.0011 13.5764 18.9229 13.7175H20.2376C20.1809 13.9296 20.1313 14.124 20.074 14.3161C20.0679 14.3365 20.0169 14.3544 19.9868 14.3546C19.527 14.357 19.0672 14.3579 18.6074 14.3548C18.5302 14.3542 18.4802 14.3731 18.4313 14.4396C18.2767 14.6499 18.0695 14.757 17.8027 14.7486C17.5411 14.7404 17.279 14.7468 16.9956 14.7468" fill="#FEFEFE"/>
<path fill-rule="evenodd" clip-rule="evenodd" d="M29.1343 13.2818C29.482 13.2818 29.8086 13.2827 30.1352 13.281C30.2001 13.2807 30.2002 13.3253 30.2053 13.3679C30.2183 13.4757 30.233 13.5835 30.2408 13.6917C30.2467 13.7756 30.2936 13.8056 30.3676 13.8074C30.4379 13.8091 30.5082 13.8078 30.5885 13.8078C30.5837 13.8452 30.5835 13.869 30.5773 13.8912C30.5283 14.0674 30.4774 14.243 30.429 14.4194C30.4156 14.4685 30.3917 14.4897 30.3381 14.4892C30.0728 14.4868 29.8074 14.4917 29.5421 14.4872C29.3157 14.4834 29.1928 14.3689 29.1768 14.1413C29.1572 13.8599 29.1484 13.5777 29.1343 13.2818" fill="#FEFEFE"/>
<path fill-rule="evenodd" clip-rule="evenodd" d="M15.0164 8.02672C15.0514 7.8571 15.0862 7.68743 15.1214 7.51786C15.1378 7.4388 15.151 7.35875 15.1741 7.28173C15.1815 7.25731 15.216 7.22426 15.2384 7.224C15.5161 7.22071 15.7938 7.22264 16.0715 7.22374C16.0798 7.22379 16.0881 7.22949 16.1062 7.23624C16.0727 7.39932 16.0394 7.56256 16.0056 7.7257C15.9879 7.81082 15.9732 7.89684 15.9491 7.98008C15.9421 8.00408 15.9072 8.03655 15.8848 8.03686C15.6071 8.04037 15.3293 8.03869 15.0516 8.03786C15.0429 8.03781 15.0343 8.03258 15.0164 8.02672" fill="#FEFEFE"/>
</svg>
