<svg width="40" height="24" viewBox="0 0 40 24" fill="none" xmlns="http://www.w3.org/2000/svg">
<path fill-rule="evenodd" clip-rule="evenodd" d="M37.5257 24H2.47429C1.11344 24 0 22.8716 0 21.4924V2.50762C0 1.12843 1.11344 0 2.47429 0H37.5257C38.8866 0 40 1.12843 40 2.50762V21.4924C40 22.8716 38.8866 24 37.5257 24" fill="#1B5BA6"/>
<path fill-rule="evenodd" clip-rule="evenodd" d="M36.8322 17.1923C36.5207 17.1923 36.242 17.1921 35.9634 17.1924C35.5058 17.1928 35.0481 17.1891 34.5906 17.1968C34.4554 17.1991 34.3965 17.1487 34.3715 17.0126C34.296 16.6031 34.2045 16.1967 34.1328 15.7867C34.1079 15.6447 34.0505 15.6032 33.9163 15.6039C32.8987 15.6089 31.881 15.6104 30.8633 15.6035C30.7169 15.6025 30.6629 15.665 30.6199 15.7941C30.4799 16.2151 30.3343 16.6342 30.1797 17.0496C30.1567 17.1115 30.0746 17.1919 30.0191 17.1925C29.1459 17.2015 28.2725 17.1988 27.3679 17.1988C27.5572 16.7294 27.7371 16.2831 27.9171 15.8368C29.0329 13.071 30.1494 10.3055 31.2642 7.5393C31.5529 6.82293 31.8755 6.5965 32.6264 6.59619C33.2617 6.59593 33.8968 6.59922 34.532 6.59499C34.66 6.59417 34.7165 6.62469 34.746 6.77263C35.1997 9.05034 35.6626 11.3262 36.1222 13.6026C36.3485 14.7234 36.5724 15.8448 36.7969 16.9661C36.8091 17.0275 36.8163 17.09 36.8322 17.1923V17.1923ZM33.6563 13.4414C33.3915 12.1214 33.1303 10.8201 32.8692 9.51872C32.8513 9.51688 32.8335 9.51511 32.8157 9.51328C32.3614 10.815 31.907 12.1167 31.4447 13.4414C32.1874 13.4414 32.9006 13.4414 33.6563 13.4414V13.4414Z" fill="white"/>
<path fill-rule="evenodd" clip-rule="evenodd" d="M4.08569 6.88079C4.10471 6.78265 4.11921 6.70688 4.13451 6.63136C4.13573 6.62548 4.14243 6.62081 4.16139 6.59679C4.22593 6.59382 4.30619 6.58687 4.38651 6.58687C5.78659 6.58662 7.18667 6.58617 8.58668 6.58801C9.27974 6.58896 9.7325 6.96743 9.86401 7.68045C10.2228 9.62507 10.5726 11.5715 10.9265 13.517C10.9398 13.5903 10.9596 13.6623 10.9911 13.7987C11.1477 13.3896 11.2828 13.0381 11.4169 12.6862C12.1711 10.7068 12.9254 8.72733 13.6782 6.74726C13.7158 6.64829 13.7537 6.5839 13.8782 6.58497C14.7182 6.5923 15.5583 6.59016 16.3984 6.59167C16.425 6.59174 16.4517 6.59856 16.5035 6.6057C16.4241 6.80912 16.3504 7.00376 16.2726 7.19657C14.9517 10.4716 13.6293 13.746 12.3118 17.0225C12.2557 17.1622 12.1862 17.2124 12.0407 17.2111C11.2417 17.204 10.4426 17.203 9.64364 17.211C9.48744 17.2126 9.41924 17.1696 9.37884 17.006C8.69839 14.2525 8.00497 11.5024 7.33184 8.74698C7.20964 8.2468 6.98104 7.87079 6.50714 7.6996C5.78068 7.43715 5.04788 7.19366 4.31746 6.94341C4.24714 6.91934 4.17388 6.90436 4.08569 6.88079V6.88079Z" fill="white"/>
<path fill-rule="evenodd" clip-rule="evenodd" d="M27.9703 6.87461C27.816 7.62201 27.6649 8.35387 27.5116 9.09659C26.9148 8.82713 26.3069 8.65044 25.6667 8.61075C25.1932 8.58137 24.7221 8.58693 24.2881 8.82151C24.1695 8.88559 24.0562 8.9745 23.9648 9.07561C23.7135 9.3536 23.6987 9.73227 23.9714 9.98517C24.2274 10.2227 24.526 10.4155 24.8212 10.6019C25.2693 10.8847 25.7414 11.1273 26.1846 11.4177C28.1948 12.7347 27.5884 15.2441 26.3812 16.2568C25.667 16.8559 24.8451 17.1687 23.9538 17.2931C22.6561 17.4741 21.3823 17.3392 20.1424 16.8935C20.0789 16.8706 20.0179 16.8404 19.9429 16.8082C20.1011 16.0406 20.2575 15.282 20.4207 14.4899C20.5276 14.5405 20.6237 14.5853 20.7192 14.6315C21.5777 15.0462 22.4777 15.2297 23.4233 15.1399C23.7665 15.1073 24.0945 15.012 24.3756 14.7916C24.8215 14.442 24.8697 13.8716 24.4426 13.5009C24.1481 13.2454 23.7949 13.062 23.466 12.8497C22.981 12.5366 22.4596 12.272 22.0146 11.9068C20.4935 10.6585 20.9642 8.73 21.8657 7.76711C22.5563 7.0295 23.4213 6.66209 24.3757 6.49115C25.5646 6.27819 26.7264 6.41197 27.8623 6.82077C27.8939 6.83208 27.9229 6.85073 27.9703 6.87461V6.87461Z" fill="white"/>
<path fill-rule="evenodd" clip-rule="evenodd" d="M20.2973 6.60474C19.5699 10.1384 18.8455 13.6574 18.1183 17.1904C17.2429 17.1904 16.3719 17.1904 15.4773 17.1904C16.2053 13.6613 16.932 10.1389 17.6612 6.60474C18.5388 6.60474 19.4095 6.60474 20.2973 6.60474V6.60474Z" fill="white"/>
</svg>
