<svg xmlns="http://www.w3.org/2000/svg" width="24" height="24" viewBox="0 0 24 24">
  <path d="M43,15.7205688 C43.0025895,15.5708739 42.9433409,15.4267212 42.8361822,15.3222093 C42.7317159,15.2150039 42.5876261,15.1557294 42.4379965,15.1584069 L37.8428749,15.1584069 L37.8428749,10.5622488 C37.8455513,10.4125539 37.7863027,10.2684012 37.679144,10.1638893 C37.5746778,10.0566839 37.4305879,9.99740939 37.2809583,10 L36.7180729,10 C36.5684433,9.99740939 36.4243534,10.0566839 36.3198871,10.1638893 C36.2127285,10.2684012 36.1534799,10.4125539 36.1561563,10.5622488 L36.1561563,15.1584069 L31.5620035,15.1584069 C31.4123739,15.1557294 31.2682841,15.2150039 31.1638178,15.3222093 C31.0566591,15.4267212 30.9974105,15.5708739 31,15.7205688 L31,16.2807922 C30.9974105,16.4304871 31.0566591,16.5746399 31.1638178,16.6791518 C31.2682841,16.7863572 31.4123739,16.8456317 31.5620035,16.8429541 L36.1561563,16.8429541 L36.1561563,21.4420199 C36.1534799,21.5917148 36.2127285,21.7358676 36.3198871,21.8403795 C36.4243534,21.9475849 36.5684433,22.0068594 36.7180729,22.0042688 L37.2780518,22.0042688 C37.4276814,22.0068594 37.5717713,21.9475849 37.6762376,21.8403795 C37.7833962,21.7358676 37.8426448,21.5917148 37.8399685,21.4420199 L37.8399685,16.8458618 L42.4341212,16.8458618 C42.5837508,16.8485394 42.7278406,16.7892649 42.8323069,16.6820595 C42.9394656,16.5775476 42.9987142,16.4333949 42.9960378,16.2837 L43,15.7205688 Z M48.9987487,15.9995 C49.0126176,13.8896264 48.4523165,11.8157174 47.3778502,9.99987569 C46.3218672,8.18591203 44.813088,6.67713282 42.9991244,5.62114986 C41.1832827,4.54668355 39.1093736,3.98638246 36.9995,4.00025135 C34.8896264,3.98638246 32.8157174,4.54668355 30.9998757,5.62114986 C29.185912,6.67713282 27.6771328,8.18591203 26.6211499,9.99987569 C25.5466835,11.8157174 24.9863825,13.8896264 25.0002514,15.9995 C24.9863825,18.1093736 25.5466835,20.1832827 26.6211499,21.9991244 C27.6772728,23.8135802 29.1864198,25.3227272 31.0008756,26.3788501 C32.8167173,27.4533165 34.8906264,28.0136175 37.0005,27.9997486 C39.1103736,28.0136175 41.1842826,27.4533165 43.0001243,26.3788501 C44.814088,25.3228672 46.3228672,23.814088 47.3788501,22.0001243 C48.4533165,20.1842826 49.0136175,18.1103736 48.9997486,16.0005 L48.9987487,15.9995 Z M46.9996274,15.9980524 C47.0095159,17.754945 46.5468061,19.4821747 45.6599599,20.9988399 C44.7904457,22.5166331 43.5362381,23.778432 42.0237194,24.6570892 C40.5086231,25.5476879 38.7803417,26.0106795 37.0229319,25.9967567 C35.2585232,26.0086986 33.5233629,25.5459892 31.9991787,24.6570892 C30.4812775,23.788237 29.21916,22.5347008 28.3399725,21.0227625 C27.4493738,19.5076662 26.9863822,17.7793848 27.000305,16.021975 C26.9883631,14.2575663 27.4510725,12.522406 28.3399725,10.9982218 C29.2094867,9.48042856 30.4636943,8.2186297 31.976213,7.33997252 C33.4913093,6.44937379 35.2195907,5.9863822 36.9770005,6.00030499 C38.7414092,5.98836307 40.4765695,6.45107249 42.0007537,7.33997252 C43.5185469,8.20948669 44.7803458,9.4636943 45.659003,10.976213 C46.5517354,12.4984949 47.0150449,14.2343349 46.9996274,15.9990093 L46.9996274,15.9980524 Z" transform="translate(-25 -4)"></path>
</svg>