<svg xmlns="http://www.w3.org/2000/svg" width="23.999" height="18.239" viewBox="0 0 23.999 18.239">
  <g id="air-conditioner" transform="translate(0 -0.5)">
    <path id="Path_7649" data-name="Path 7649" d="M22,.5H2a2,2,0,0,0-2,2V8.9a2,2,0,0,0,2,2H22a2,2,0,0,0,2-2V2.5A2,2,0,0,0,22,.5Zm-1.6,9.6H3.6V8.9A.4.4,0,0,1,4,8.5H20a.4.4,0,0,1,.4.4Zm2.8-1.2A1.2,1.2,0,0,1,22,10.1h-.8V8.9A1.2,1.2,0,0,0,20,7.7H4A1.2,1.2,0,0,0,2.8,8.9v1.2H2A1.2,1.2,0,0,1,.8,8.9V2.5A1.2,1.2,0,0,1,2,1.3H22a1.2,1.2,0,0,1,1.2,1.2Zm0,0"/>
    <path id="Path_7650" data-name="Path 7650" d="M191.144,308.044l-1.083,1.083h-.634v-.634l1.083-1.083-.566-.566-.917.917-.917-.917-.566.566,1.083,1.083v.634h-.634l-1.083-1.083-.566.566.917.917-.917.917.566.566,1.083-1.083h.634v.634l-1.083,1.083.566.566.917-.917.917.917.566-.566-1.083-1.083v-.634h.634l1.083,1.083.566-.566-.917-.917.917-.917Zm0,0" transform="translate(-177.027 -293.471)"/>
    <path id="Path_7651" data-name="Path 7651" d="M367.144,356.044l-1.083,1.083h-.634v-.634l1.083-1.083-.566-.566-.917.917-.917-.917-.566.566,1.083,1.083v.634h-.634l-1.083-1.083-.566.566.917.917-.917.917.566.566,1.083-1.083h.634v.634l-1.083,1.083.566.566.917-.917.917.917.566-.566-1.083-1.083v-.634h.634l1.083,1.083.566-.566-.917-.917.917-.917Zm0,0" transform="translate(-344.227 -341.471)"/>
    <path id="Path_7652" data-name="Path 7652" d="M15.144,356.044l-1.083,1.083h-.634v-.634l1.083-1.083-.566-.566-.917.917-.917-.917-.566.566,1.083,1.083v.634h-.634l-1.083-1.083-.566.566.917.917-.917.917.566.566,1.083-1.083h.634v.634l-1.083,1.083.566.566.917-.917.917.917.566-.566-1.083-1.083v-.634h.634l1.083,1.083.566-.566-.917-.917.917-.917Zm0,0" transform="translate(-9.827 -341.471)"/>
    <path id="Path_7660" data-name="Path 7660" d="M336,48.5h4v.8h-4Zm0,0" transform="translate(-319.201 -45.6)"/>
    <path id="Path_7661" data-name="Path 7661" d="M304,48.5h.8v.8H304Zm0,0" transform="translate(-288.8 -45.6)"/>
  </g>
</svg>