<svg xmlns="http://www.w3.org/2000/svg" width="24" height="18" viewBox="0 0 24 18">
  <path id="airport-transport" d="M2.86,11.076a.448.448,0,0,0-.206.575l.944,2.12A.428.428,0,0,0,3.833,14a.408.408,0,0,0,.319-.013l7.13-3.486-.646,7.068a.45.45,0,0,0,.138.369,1.784,1.784,0,0,0,1.108.439,1.292,1.292,0,0,0,.331-.044c.579-.158,1.028-.7,1.334-1.62l2.806-8.7L21.91,5.3c1.636-.8,2.479-2.419,1.913-3.683a2.128,2.128,0,0,0-1.64-1.2,3.735,3.735,0,0,0-2.29.369L13.479,3.938l-6.9-2.823a2.046,2.046,0,0,0-2.038.031,1.825,1.825,0,0,0-.625,1.418.445.445,0,0,0,.18.347L8.744,6.251,6.085,7.568,1.626,6.383a.413.413,0,0,0-.465.211L.049,8.688a.456.456,0,0,0-.025.361.429.429,0,0,0,.243.258l3.3,1.427ZM4.78,2.344a.761.761,0,0,1,.252-.474c.239-.18.675-.154,1.258.075l6.141,2.507-2.8,1.37ZM1.006,8.683l.73-1.356L6.026,8.442A.4.4,0,0,0,6.3,8.416L20.249,1.6a2.945,2.945,0,0,1,1.791-.3,1.311,1.311,0,0,1,1.023.694c.352.79-.34,1.945-1.51,2.515L16.722,6.879l.294-.909a.451.451,0,0,0-.27-.564.423.423,0,0,0-.539.283L12.754,16.44c-.206.61-.461.975-.747,1.054a.684.684,0,0,1-.512-.1l.839-9.219a.436.436,0,0,0-.38-.48.427.427,0,0,0-.459.4L11.366,9.5l-7.2,3.512-.591-1.317,1.183-.579a.447.447,0,0,0,0-.8Zm0,0" transform="translate(0.001 -0.376)"/>
</svg>