<svg xmlns="http://www.w3.org/2000/svg" width="15.75" height="21" viewBox="0 0 15.75 21"><path d="M4.922-11.047a2.848,2.848,0,0,0,.861,2.092,2.848,2.848,0,0,0,2.092.861,2.848,2.848,0,0,0,2.092-.861,2.848,2.848,0,0,0,.861-2.092,2.848,2.848,0,0,0-.861-2.092A2.848,2.848,0,0,0,7.875-14a2.848,2.848,0,0,0-2.092.861A2.848,2.848,0,0,0,4.922-11.047Zm10.459.041a1.369,1.369,0,0,1,.369.943,1.369,1.369,0,0,1-.369.943l-3.9,3.855V5.687A1.331,1.331,0,0,1,10.172,7H9.516A1.331,1.331,0,0,1,8.2,5.687V1.094H7.547V5.687A1.331,1.331,0,0,1,6.234,7H5.578A1.331,1.331,0,0,1,4.266,5.687V-5.264L.369-9.119A1.369,1.369,0,0,1,0-10.063a1.261,1.261,0,0,1,.39-.923,1.261,1.261,0,0,1,.923-.39,1.369,1.369,0,0,1,.943.369L5.783-7.438H9.967l3.527-3.568a1.369,1.369,0,0,1,.943-.369A1.369,1.369,0,0,1,15.381-11.006Z" transform="translate(0 14)" opacity="0.5"></path></svg>