<svg xmlns="http://www.w3.org/2000/svg" width="24" height="23.999" viewBox="0 0 24 23.999">
  <g id="desk" transform="translate(0 -0.009)">
    <path id="Path_7640" data-name="Path 7640" d="M24,10.061a1.035,1.035,0,0,0-1.033-1.033H21.332A1.625,1.625,0,0,0,19.747,7.75h-.28V4.859a1.074,1.074,0,1,0-.888-1.945L16.927,1.483A1.074,1.074,0,1,0,14.9,1.376l-.353.246-.011-.013a.73.73,0,0,0-.8-.207l-1.416.518-.051-.059a.352.352,0,1,0-.532.46l.21.242h0l1.749,2.021h0l.23.266a.352.352,0,0,0,.532-.46l-.078-.09.686-1.4A.725.725,0,0,0,15,2.158l.3-.206a1.071,1.071,0,0,0,1.168.062l1.652,1.431a1.073,1.073,0,0,0,.645,1.414V7.75h-.279A1.625,1.625,0,0,0,16.9,9.027h-.424a.352.352,0,1,0,0,.7h6.491a.33.33,0,0,1,0,.66H1.033a.33.33,0,1,1,0-.66H14.957a.352.352,0,1,0,0-.7H11.6v-2.2a.451.451,0,0,0-.451-.451H6.84a.451.451,0,0,0-.451.451v2.2H1.033a1.033,1.033,0,1,0,0,2.067H2.255L.841,23.045a.862.862,0,0,0,1.707.241L4.022,14.3a.352.352,0,1,0-.694-.114L1.854,23.172a.159.159,0,0,1-.315-.044L2.963,11.094h.872L3.6,12.539a.352.352,0,0,0,.694.114l.256-1.559H19.453l2,12.192a.862.862,0,0,0,1.707-.241L21.746,11.094h1.221A1.035,1.035,0,0,0,24,10.061ZM14.431,2.589l-.555,1.133L12.809,2.489l1.165-.426A.023.023,0,0,1,14,2.069l.221.256,0,0,.2.236a.023.023,0,0,1,0,.025Zm1.127-1.506a.371.371,0,1,1,.371.371A.372.372,0,0,1,15.558,1.083Zm3.557,2.389a.371.371,0,0,1,0,.743h0a.371.371,0,0,1,0-.743ZM17.633,9.027a.92.92,0,0,1,.852-.574h1.262a.92.92,0,0,1,.852.574ZM7.092,7.083H10.9V7.7H7.092Zm0,1.324H10.9v.62H7.092ZM22.461,23.128a.159.159,0,0,1-.315.044L20.166,11.094h.872Z" transform="translate(0 0)"></path>
  </g>
</svg>