<svg xmlns="http://www.w3.org/2000/svg" width="24" height="24" viewBox="0 0 24 24">
  <g id="garden-view" transform="translate(-0.004 0)">
    <path id="Path_7469" data-name="Path 7469" d="M23.53,23.226H12.815v-3.1H23.253a.508.508,0,0,0,.4-.178.327.327,0,0,0,.032-.371L12.771.226a.525.525,0,0,0-.863,0L1,19.58a.327.327,0,0,0,.032.371.508.508,0,0,0,.4.178H11.866v3.1H.478a.4.4,0,1,0,0,.774H23.53a.4.4,0,1,0,0-.774ZM2.168,19.355,12.34,1.314,22.512,19.355h-9.7V16.806L15.522,14.6a.339.339,0,0,0-.006-.543.553.553,0,0,0-.665,0l-2.037,1.662V12a.484.484,0,0,0-.949,0v4.872L8.88,14.436a.553.553,0,0,0-.665,0,.339.339,0,0,0-.006.543l3.657,2.983v1.388Zm0,0" transform="translate(0 0)" fill="#231f20"></path>
    <path id="Path_7470" data-name="Path 7470" d="M264.395,265.263a.386.386,0,0,0,.274-.113l.387-.387a.387.387,0,0,0-.547-.547l-.387.387a.387.387,0,0,0,.274.661Zm0,0" transform="translate(-248.165 -251.328)" fill="#231f20"></path>
  </g>
</svg>