<svg xmlns="http://www.w3.org/2000/svg" width="24" height="24" viewBox="0 0 24 24">
  <g id="golf_" data-name="golf " transform="translate(-0.992 -0.977)">
    <path id="Shape" d="M23.116,20.309c-.847-.372-3.548-1.144-3.4-2.117.092-.592,2.007-.4,2.043-1.653.028-1.052-1.353-1.2-1.806-1.232a36.551,36.551,0,0,0-12.134.428v-6.4c3.119-2.693,6.543,3.381,10.163.244a.8.8,0,0,0,.273-.628v-5.8a.8.8,0,0,0-1.236-.672c-3,1.865-6.37-3.729-9.878-.436-.2.184-.124-.344-.124,13.885C4.744,16.56,1.112,17.968,1,20.3.867,23.022,4.8,23.886,6.282,24.194a36.937,36.937,0,0,0,14.43.14c1.232-.208,3.8-.608,4.219-1.749a1.229,1.229,0,0,0-.2-1.152,3.612,3.612,0,0,0-1.61-1.124ZM17.452,3.147V8.953c-2.982,2.585-6.157-2.8-9.633-.64V2.507c2.966-2.565,6.153,2.8,9.633.64ZM24.179,22.33c-.253.68-2.906,1.112-3.612,1.232a36.006,36.006,0,0,1-14.125-.136c-3.211-.7-4.72-1.709-4.652-3.081.088-1.821,3.456-3.073,5.218-3.6V18.6c-.927.124-1.606.684-1.606,1.372,0,.8.883,1.4,2.007,1.4s2.007-.616,2.007-1.4c0-.688-.678-1.248-1.606-1.372V16.524a35.358,35.358,0,0,1,12.041-.456c.9.088,1.088.276,1.084.4,0,.5-1.85.344-2.035,1.553-.245,1.773,2.766,2.537,3.9,3.021a2.971,2.971,0,0,1,1.26.856C24.239,22.162,24.191,22.286,24.179,22.33ZM7.418,20.193a.4.4,0,0,0,.4-.4v-.36c.478.092.8.336.8.56s-.514.6-1.2.6-1.2-.316-1.2-.6.325-.468.8-.56v.36A.4.4,0,0,0,7.418,20.193Z" transform="translate(0 0)"/>
    <path id="Shape-2" data-name="Shape" d="M39.606,47a1.606,1.606,0,1,0,1.606,1.606A1.606,1.606,0,0,0,39.606,47Zm0,2.408a.8.8,0,1,1,.8-.8A.8.8,0,0,1,39.606,49.408Z" transform="translate(-22.153 -27.625)"/>
  </g>
</svg>