<svg xmlns="http://www.w3.org/2000/svg" width="23.999" height="23.916" viewBox="0 0 23.999 23.916">
  <g id="hairdryer" transform="translate(-9.215 -9.413)">
    <path id="Path_7644" data-name="Path 7644" d="M23.636,66.317a1.921,1.921,0,1,0,2.717,0A1.921,1.921,0,0,0,23.636,66.317Zm2.174,2.174a1.147,1.147,0,1,1,.341-.816,1.154,1.154,0,0,1-.341.816Z" transform="translate(-10.822 -43.997)"></path>
    <path id="Path_7645" data-name="Path 7645" d="M51.395,47.666a.383.383,0,1,0,.542-.542l-1.78-1.78a.383.383,0,1,0-.542.542Z" transform="translate(-31.46 -27.97)"></path>
    <path id="Path_7646" data-name="Path 7646" d="M45.692,53.369a.383.383,0,1,0,.542-.542l-1.78-1.78a.383.383,0,1,0-.542.542Z" transform="translate(-27.007 -32.424)"></path>
    <path id="Path_7647" data-name="Path 7647" d="M39.988,59.073a.383.383,0,0,0,.542-.542l-1.78-1.78a.383.383,0,0,0-.542.542Z" transform="translate(-22.552 -36.878)"></path>
    <path id="Path_7648" data-name="Path 7648" d="M33.031,20.347a5.111,5.111,0,0,0-6.58.761,4.383,4.383,0,0,0-.335,5.735c1.83,2.514,2.233,4.24,1.2,5.131-1.588,1.367-3.427.027-4.11-.575l1.035-1.035a.383.383,0,0,0,0-.542l-1.5-1.5-1.129-1.129-2.22-2.22,6.731-8.652,2.041-.609a.383.383,0,0,0,.161-.639L22.776,9.525a.383.383,0,0,0-.638.161l-.608,2.041L10.708,20.146a.359.359,0,0,0-.036.032,4.944,4.944,0,0,0,4.59,8.325l5.926,4.445a.383.383,0,0,0,.5-.036l.968-.968a4.988,4.988,0,0,0,3.14,1.385,3.02,3.02,0,0,0,2.016-.774c1.39-1.2,1.027-3.271-1.078-6.163a3.649,3.649,0,0,1,.279-4.765A4.36,4.36,0,0,1,32.631,21a.383.383,0,1,0,.4-.655ZM22.689,10.522l4.639,4.639L26,15.555l-3.71-3.71ZM11.215,26.636a4.187,4.187,0,0,1-.016-5.9L21.83,12.465l3.555,3.555L17.113,26.652a4.183,4.183,0,0,1-5.9-.016Zm10.168,5.5-5.23-3.922a4.942,4.942,0,0,0,1.519-1.035.353.353,0,0,0,.032-.036l1.214-1.56.75.75-1.205,1.205A.383.383,0,0,0,19,28.08l1.205-1.205.587.587-.941.941a.383.383,0,1,0,.542.542L21.339,28l.587.587-.587.587a.384.384,0,0,0,.542.543l.587-.587.958.958Z" transform="translate(0)"></path>
  </g>
</svg>