<svg xmlns="http://www.w3.org/2000/svg" width="24" height="16.987" viewBox="0 0 24 16.987">
  <g id="iron" transform="translate(-4.75 -22.436)">
    <path id="Path_7630" data-name="Path 7630" d="M28.744,34.7l-1.07-6.1A3.667,3.667,0,0,0,27,27.139l.628-.681a.407.407,0,0,0,0-.544l-.122-.132a2.069,2.069,0,0,0,.753-1.388,2.456,2.456,0,0,0-.155-.923,2.261,2.261,0,0,1-.135-.65.357.357,0,1,0-.711,0,2.973,2.973,0,0,0,.171.893,1.8,1.8,0,0,1,.121.621,1.374,1.374,0,0,1-.549.9l-.236-.255a.346.346,0,0,0-.5,0l-.95,1.03a2.8,2.8,0,0,0-.668-.084H17.5C11.378,25.927,6.878,31.5,5.512,37.1H5.106a.371.371,0,0,0-.356.385v1.558a.371.371,0,0,0,.356.385H26.75a.371.371,0,0,0,.356-.385V37.562a.42.42,0,0,0,.008-.081c0-1.282.428-2,1.389-2.339a.389.389,0,0,0,.24-.438ZM26.519,25.8l.359.388-.386.419a3.06,3.06,0,0,0-.439-.3ZM5.461,38.654v-.789H26.395v.788ZM26.415,37.1H6.246C7.6,31.851,11.81,26.7,17.5,26.7h7.149a2.246,2.246,0,0,1,1.6.694l.008.011a.242.242,0,0,0,.026.022,2.794,2.794,0,0,1,.693,1.337l1.011,5.768A2.756,2.756,0,0,0,26.415,37.1Z" transform="translate(0 0)"></path>
    <path id="Path_7631" data-name="Path 7631" d="M54.34,80.14H48.258a.356.356,0,1,0,0,.711H54.34a.356.356,0,0,0,0-.711Z" transform="translate(-34.384 -44.976)"></path>
    <path id="Path_7632" data-name="Path 7632" d="M60.05,50.649a.625.625,0,0,0-.583-.513H53.219a5.583,5.583,0,0,0-5.3,4.1.355.355,0,0,0,.34.458H60.206a.563.563,0,0,0,.447-.227.749.749,0,0,0,.137-.639Zm-5.957,3.329v-1h1.831v1Zm2.542,0v-1.35a.356.356,0,0,0-.356-.356H53.737a.356.356,0,0,0-.356.356v1.351H48.759a4.837,4.837,0,0,1,4.46-3.131h6.147l.732,3.131Z" transform="translate(-34.384 -21.424)"></path>
  </g>
</svg>