<svg xmlns="http://www.w3.org/2000/svg" width="21.599" height="23.999" viewBox="0 0 21.599 23.999">
  <g id="kettle" transform="translate(-39.999 -16)">
    <path id="Path_7628" data-name="Path 7628" d="M61.6,21.2A3.6,3.6,0,0,0,58,17.6H53.907A6.4,6.4,0,0,0,49.2,16c-2.8,0-5.019,1.139-5.184,2.623A5.672,5.672,0,0,0,42.932,20.4H40.4a.4.4,0,0,0-.371.548l1.6,4a.4.4,0,0,0,.064.107,71.744,71.744,0,0,0-.892,8.932s0,0,0,.006,0,0,0,.006a2.8,2.8,0,0,0,1.274,2.344A3.6,3.6,0,0,0,40,39.6a.4.4,0,0,0,.4.4H58a.4.4,0,0,0,.4-.4,3.6,3.6,0,0,0-2.074-3.256A2.8,2.8,0,0,0,57.6,34s0,0,0-.006,0,0,0-.006c0-.089-.018-.524-.054-1.187H58a3.6,3.6,0,0,0,3.6-3.6ZM49.2,16.8c2.23,0,3.879.78,4.3,1.6H44.9C45.319,17.58,46.968,16.8,49.2,16.8Zm-8.209,4.4h1.642a22.265,22.265,0,0,0-.664,2.446Zm16.58,18H40.827A2.8,2.8,0,0,1,43.6,36.8H54.8A2.8,2.8,0,0,1,57.57,39.2ZM54.8,36H43.6a2,2,0,0,1-1.96-1.6H56.758A2,2,0,0,1,54.8,36ZM41.615,33.6c.044-.967.182-3.5.531-6.2a28.5,28.5,0,0,1,1.4-6.413.385.385,0,0,0,.025-.064A5.266,5.266,0,0,1,44.56,19.2h9.276c.738.767,1.72,2.825,2.414,8.2.349,2.7.487,5.237.531,6.2ZM55.992,21.912c0-.01.006-.019.006-.029V21.2A1.2,1.2,0,0,1,57.2,20H58a1.2,1.2,0,0,1,1.2,1.2v8A1.2,1.2,0,0,1,58,30.4h-.622A46.712,46.712,0,0,0,55.992,21.912ZM60.8,29.2A2.8,2.8,0,0,1,58,32h-.5c-.016-.251-.034-.515-.056-.8H58a2,2,0,0,0,2-2v-8a2,2,0,0,0-2-2h-.8a2,2,0,0,0-1.776,1.1,5.52,5.52,0,0,0-1.04-1.677,1.623,1.623,0,0,0-.04-.223H58a2.8,2.8,0,0,1,2.8,2.8Z" transform="translate(0)"></path>
    <path id="Path_7629" data-name="Path 7629" d="M194.8,448h-2.4a.4.4,0,1,0,0,.8h2.4a.4.4,0,0,0,0-.8Z" transform="translate(-144.402 -410.401)"></path>
  </g>
</svg>