<svg xmlns="http://www.w3.org/2000/svg" width="24" height="22" viewBox="0 0 24 22">
  <g id="king-bed" transform="translate(0 -21.334)">
    <g id="Group_6480" data-name="Group 6480" transform="translate(0 21.334)">
      <path id="Path_7329" data-name="Path 7329" d="M23.961,36.5a.486.486,0,0,0,.016-.318L22,29.762V23.834a2.5,2.5,0,0,0-2.5-2.5H4.5a2.5,2.5,0,0,0-2.5,2.5v5.928L.023,36.187a.487.487,0,0,0,.016.318A1.482,1.482,0,0,0,0,36.834v6a.5.5,0,0,0,.5.5h2a.5.5,0,0,0,.5-.5v-1.5H21v1.5a.5.5,0,0,0,.5.5h2a.5.5,0,0,0,.5-.5v-6A1.484,1.484,0,0,0,23.961,36.5ZM3,23.834a1.5,1.5,0,0,1,1.5-1.5h15a1.5,1.5,0,0,1,1.5,1.5v5.5H19.641l-.466-1.864a1.5,1.5,0,0,0-1.456-1.136H14.5a1.5,1.5,0,0,0-1.5,1.5v1.5H11v-1.5a1.5,1.5,0,0,0-1.5-1.5H6.281a1.5,1.5,0,0,0-1.456,1.136l-.466,1.863H3Zm15.614,6.308a.5.5,0,0,1-.4.192H14.5a.5.5,0,0,1-.5-.5v-2a.5.5,0,0,1,.5-.5h3.22a.5.5,0,0,1,.485.378l.5,2A.5.5,0,0,1,18.614,30.142ZM10,27.834v1.995s0,0,0,.005v0a.5.5,0,0,1-.5.5H5.782a.5.5,0,0,1-.486-.622l.5-2a.5.5,0,0,1,.486-.378H9.5A.5.5,0,0,1,10,27.834Zm-7.132,2.5H4.374a1.457,1.457,0,0,0,1.407,1H9.5a1.5,1.5,0,0,0,1.408-1h2.184a1.5,1.5,0,0,0,1.408,1h3.719a1.5,1.5,0,0,0,1.183-.576,1.472,1.472,0,0,0,.223-.424h1.506l1.544,5.018a1.442,1.442,0,0,0-.175-.018H1.5a1.406,1.406,0,0,0-.174.018ZM2,42.334H1v-1H2v1Zm21,0H22v-1h1Zm0-2H1v-3.5a.5.5,0,0,1,.5-.5h21a.5.5,0,0,1,.5.5Z" transform="translate(0 -21.334)"/>
    </g>
  </g>
</svg>