<svg xmlns="http://www.w3.org/2000/svg" width="24" height="19.2" viewBox="0 0 24 19.2">
  <g id="kitchenette" transform="translate(-2 -6.8)">
    <path id="Path_7494" data-name="Path 7494" d="M25.6,40.4H20V39.2a.4.4,0,0,0-.4-.4h-.8V38H18v.8h-.8a.4.4,0,0,0-.4.4v1.2H15.6V39.2a.4.4,0,0,0-.4-.4h-.8V38h-.8v.8h-.8a.4.4,0,0,0-.4.4v1.2h-.8V39.2a.4.4,0,0,0-.4-.4h-.8V38H9.6v.8H8.8a.4.4,0,0,0-.4.4v1.2h-6a.4.4,0,0,0-.4.4v6.4a.4.4,0,0,0,.4.4H25.6a.4.4,0,0,0,.4-.4V40.8A.4.4,0,0,0,25.6,40.4Zm-8-.8h1.6v.8H17.6Zm-4.4,0h1.6v.8H13.2Zm-4,0h1.6v.8H9.2Zm16,7.2H2.8V41.2H25.2Z" transform="translate(0 -21.6)"></path>
    <path id="Path_7495" data-name="Path 7495" d="M10.4,47a2.4,2.4,0,1,0,2.4,2.4A2.4,2.4,0,0,0,10.4,47Zm0,4a1.6,1.6,0,0,1-.4-3.143V48.6h.8v-.743A1.6,1.6,0,0,1,10.4,51Z" transform="translate(-3.6 -27)"></path>
    <path id="Path_7499" data-name="Path 7499" d="M5.2,19.2H6v2.4a1.2,1.2,0,0,0,1.2,1.2h16a1.2,1.2,0,0,0,1.2-1.2V19.2h.8A1.2,1.2,0,0,0,26.4,18V16a1.2,1.2,0,0,0-1.2-1.2h-.8v-.4A.4.4,0,0,0,24,14H6.4a.4.4,0,0,0-.4.4v.4H5.2A1.2,1.2,0,0,0,4,16v2A1.2,1.2,0,0,0,5.2,19.2Zm20-3.6a.4.4,0,0,1,.4.4v2a.4.4,0,0,1-.4.4h-.8V15.6Zm-1.6,0H8.4v.8H23.6v5.2a.4.4,0,0,1-.4.4H7.2a.4.4,0,0,1-.4-.4V16.4h.8v-.8H6.8v-.8H23.6ZM4.8,16a.4.4,0,0,1,.4-.4H6v2.8H5.2a.4.4,0,0,1-.4-.4Z" transform="translate(-1.2 -7.2)"></path>
    <path id="Path_7500" data-name="Path 7500" d="M47,48h4.4v.8H47Z" transform="translate(-27 -27.6)"></path>
    <path id="Path_7501" data-name="Path 7501" d="M47,52h3.6v.8H47Z" transform="translate(-27 -30)"></path>
    <path id="Path_7502" data-name="Path 7502" d="M47,56h2.8v.8H47Z" transform="translate(-27 -32.4)"></path>
  </g>
</svg>