<svg xmlns="http://www.w3.org/2000/svg" width="20.061" height="23.999" viewBox="0 0 20.061 23.999">
  <g id="minibar" transform="translate(-19.003 -2.19)">
    <g id="Group_6902" data-name="Group 6902" transform="translate(19.003 2.19)">
      <g id="Group_6901" data-name="Group 6901">
        <path id="Path_7606" data-name="Path 7606" d="M118.407,46.717H102.479a2.069,2.069,0,0,0-2.066,2.066V68.65a2.069,2.069,0,0,0,2.066,2.066h15.928a2.069,2.069,0,0,0,2.066-2.066V48.783A2.069,2.069,0,0,0,118.407,46.717Zm-5.023,3.677a2.081,2.081,0,1,1,3.387,1.619h-2.612A2.079,2.079,0,0,1,113.384,50.394Zm1.238-2.817a2.953,2.953,0,0,0-1.668,1.288,2.953,2.953,0,0,0-1.668-1.288Zm-2.1,2.817a2.063,2.063,0,0,1-.775,1.619h-2.611a2.08,2.08,0,1,1,3.386-1.619ZM109.6,47.577a2.953,2.953,0,0,0-1.668,1.288,2.953,2.953,0,0,0-1.668-1.288Zm-2.1,2.817a2.086,2.086,0,0,1-.774,1.619h-2.612a2.08,2.08,0,1,1,3.386-1.619Zm-5.023-2.817h2.1a2.939,2.939,0,0,0-1.611,4.436h-1.7v-3.23h0A1.208,1.208,0,0,1,102.479,47.577Zm8.264,22.279h-6.58V62.788a.963.963,0,0,1,.962-.962h.936a.963.963,0,0,1,.962.962v5.654a.43.43,0,1,0,.86,0V62.788a.963.963,0,0,1,.962-.962h.936a.963.963,0,0,1,.962.962Zm5.979-.83a.83.83,0,0,1-.83.83h-3.46a.831.831,0,0,1-.83-.83V64.148a3.706,3.706,0,0,1,.461-1.787l.723-1.309a5.5,5.5,0,0,0,.568-2.673h1.618a5.694,5.694,0,0,0,.568,2.673l.723,1.309a3.707,3.707,0,0,1,.46,1.787Zm-3.954-11.964a.457.457,0,0,1,.456-.456H115.1a.456.456,0,1,1,0,.913h-1.877A.457.457,0,0,1,112.769,57.062Zm6.845,11.587a1.208,1.208,0,0,1-1.206,1.206h-1.043a1.678,1.678,0,0,0,.219-.83V64.148a4.569,4.569,0,0,0-.568-2.2l-.723-1.309a3.707,3.707,0,0,1-.46-1.787v-.693a1.316,1.316,0,0,0-.73-2.411h-1.877a1.316,1.316,0,0,0-.73,2.411v.693a3.707,3.707,0,0,1-.46,1.787l-.68,1.232a1.823,1.823,0,0,0-1.572-.9h-.936a1.819,1.819,0,0,0-1.392.648,1.819,1.819,0,0,0-1.392-.648h-.936a1.824,1.824,0,0,0-1.822,1.822v7.068h-.824a1.208,1.208,0,0,1-1.206-1.206V54.882H118.23a.43.43,0,0,0,0-.86H101.273V52.873h18.34Zm0-16.637h-1.7a2.938,2.938,0,0,0-1.611-4.436h2.1a1.208,1.208,0,0,1,1.206,1.206Z" transform="translate(-100.413 -46.717)"></path>
      </g>
    </g>
    <g id="Group_6904" data-name="Group 6904" transform="translate(23.327 5.437)">
      <g id="Group_6903" data-name="Group 6903">
        <path id="Path_7607" data-name="Path 7607" d="M177.695,103.349h-1.432a.43.43,0,0,0,0,.86h1.432a.43.43,0,1,0,0-.86Z" transform="translate(-175.833 -103.349)"></path>
      </g>
    </g>
    <g id="Group_6906" data-name="Group 6906" transform="translate(28.348 5.437)">
      <g id="Group_6905" data-name="Group 6905">
        <path id="Path_7608" data-name="Path 7608" d="M265.269,103.349h-1.432a.43.43,0,1,0,0,.86h1.432a.43.43,0,1,0,0-.86Z" transform="translate(-263.407 -103.349)"></path>
      </g>
    </g>
    <g id="Group_6908" data-name="Group 6908" transform="translate(33.369 5.437)">
      <g id="Group_6907" data-name="Group 6907">
        <path id="Path_7609" data-name="Path 7609" d="M352.843,103.349h-1.432a.43.43,0,1,0,0,.86h1.432a.43.43,0,0,0,0-.86Z" transform="translate(-350.981 -103.349)"></path>
      </g>
    </g>
  </g>
</svg>