<svg xmlns="http://www.w3.org/2000/svg" width="24" height="19.12" viewBox="0 0 24 19.12">
  <g id="private-pool" transform="translate(-2 -7)">
    <path id="Path_7438" data-name="Path 7438" d="M30.2,7A1.2,1.2,0,0,0,29,8.2V11H21.8V8.2a.4.4,0,1,1,.8,0V9.4h.8V8.2a1.2,1.2,0,1,0-2.4,0V19.8h.8V17.4H29v2.4h.8V8.2a.4.4,0,1,1,.8,0V9.4h.8V8.2A1.2,1.2,0,0,0,30.2,7ZM29,16.6H21.8v-2H29Zm0-2.8H21.8v-2H29Z" transform="translate(-11.4)"/>
    <path id="Path_7439" data-name="Path 7439" d="M45,32h6.8v.8H45Z" transform="translate(-25.8 -15)"/>
    <path id="Path_7440" data-name="Path 7440" d="M2,32H8.8v.8H2Z" transform="translate(0 -15)"/>
    <path id="Path_7441" data-name="Path 7441" d="M24.96,43.047a1.986,1.986,0,0,0-3.256,0,1.21,1.21,0,0,1-2.08,0,1.984,1.984,0,0,0-3.254,0,1.21,1.21,0,0,1-2.08,0,1.984,1.984,0,0,0-3.253,0,1.311,1.311,0,0,1-1.04.592,1.314,1.314,0,0,1-1.04-.592A2.08,2.08,0,0,0,7.331,42.2a2.08,2.08,0,0,0-1.626.848,1.311,1.311,0,0,1-1.04.592,1.314,1.314,0,0,1-1.04-.592A2.08,2.08,0,0,0,2,42.2V43a1.315,1.315,0,0,1,1.04.592,2.08,2.08,0,0,0,1.625.848,2.08,2.08,0,0,0,1.626-.848A1.311,1.311,0,0,1,7.331,43a1.315,1.315,0,0,1,1.04.592A2.08,2.08,0,0,0,10,44.439a2.08,2.08,0,0,0,1.626-.848,1.21,1.21,0,0,1,2.08,0,1.983,1.983,0,0,0,3.252,0,1.21,1.21,0,0,1,2.08,0,1.986,1.986,0,0,0,3.255,0,1.21,1.21,0,0,1,2.08,0,2.083,2.083,0,0,0,1.63.848v-.8a1.31,1.31,0,0,1-1.04-.592Z" transform="translate(0 -21.119)"/>
    <path id="Path_7442" data-name="Path 7442" d="M24.96,50.047a1.986,1.986,0,0,0-3.256,0,1.21,1.21,0,0,1-2.08,0,1.984,1.984,0,0,0-3.254,0,1.21,1.21,0,0,1-2.08,0,1.984,1.984,0,0,0-3.253,0,1.311,1.311,0,0,1-1.04.592,1.314,1.314,0,0,1-1.04-.592A2.08,2.08,0,0,0,7.331,49.2a2.08,2.08,0,0,0-1.626.848,1.311,1.311,0,0,1-1.04.592,1.314,1.314,0,0,1-1.04-.592A2.08,2.08,0,0,0,2,49.2V50a1.315,1.315,0,0,1,1.04.592,2.08,2.08,0,0,0,1.625.848,2.08,2.08,0,0,0,1.626-.848A1.311,1.311,0,0,1,7.331,50a1.315,1.315,0,0,1,1.04.592A2.08,2.08,0,0,0,10,51.439a2.08,2.08,0,0,0,1.626-.848,1.21,1.21,0,0,1,2.08,0,1.983,1.983,0,0,0,3.252,0,1.21,1.21,0,0,1,2.08,0,1.986,1.986,0,0,0,3.255,0,1.21,1.21,0,0,1,2.08,0,2.083,2.083,0,0,0,1.63.848v-.8a1.31,1.31,0,0,1-1.04-.592Z" transform="translate(0 -25.319)"/>
  </g>
</svg>