<svg xmlns="http://www.w3.org/2000/svg" width="19.254" height="23.999" viewBox="0 0 19.254 23.999">
  <g id="refrigerator" transform="translate(-22.442 -4.832)">
    <path id="Path_7613" data-name="Path 7613" d="M41.29,4.832H22.847a.383.383,0,0,0-.405.355V28.476a.383.383,0,0,0,.405.355H41.29a.383.383,0,0,0,.405-.355V5.187A.383.383,0,0,0,41.29,4.832Zm-.405,15.752H32.474V5.542h8.411ZM31.664,5.542V20.584H23.253V5.542Zm-8.411,22.58V21.293H40.885v6.828Z" transform="translate(0 0)"></path>
    <path id="Path_7614" data-name="Path 7614" d="M68.6,31.126a.355.355,0,0,0,.355-.355V21.729a.355.355,0,0,0-.71,0v9.042A.355.355,0,0,0,68.6,31.126Z" transform="translate(-35.139 -13.187)"></path>
    <path id="Path_7615" data-name="Path 7615" d="M56.6,31.126a.355.355,0,0,0,.355-.355V21.729a.355.355,0,1,0-.71,0v9.042A.355.355,0,0,0,56.6,31.126Z" transform="translate(-25.934 -13.187)"></path>
    <path id="Path_7616" data-name="Path 7616" d="M56.661,88.5H52.6a.355.355,0,1,0,0,.71h4.056a.355.355,0,1,0,0-.71Z" transform="translate(-22.564 -66.7)"></path>
    <path id="Path_7617" data-name="Path 7617" d="M31.7,50.724H34.95a.355.355,0,0,0,.355-.355V46.313a.355.355,0,0,0-.355-.355H31.7a.355.355,0,0,0-.355.355v4.056A.355.355,0,0,0,31.7,50.724Zm.355-4.056h.913v.862a.355.355,0,0,0,.71,0v-.862h.913v3.346H32.06Z" transform="translate(-7.101 -32.785)"></path>
  </g>
</svg>