<svg xmlns="http://www.w3.org/2000/svg" width="24.2" height="24.2" viewBox="0 0 24.2 24.2">
  <g id="room-service" transform="translate(0.099 0.1)">
    <g id="Group_6894" data-name="Group 6894" transform="translate(0.001)">
      <g id="Group_6893" data-name="Group 6893" transform="translate(0)">
        <path id="Path_7602" data-name="Path 7602" d="M23.649,0H13.243a.352.352,0,0,0-.352.352V3a3.138,3.138,0,0,0-.7-.161V2.462a.352.352,0,1,0-.7,0v.372A3.168,3.168,0,0,0,8.673,5.978V6.33H8.321a.352.352,0,1,0,0,.7h3.132a2,2,0,0,1-1.96,1.641H7.218a1.291,1.291,0,0,0-1.185-.937.353.353,0,0,0-.074,0H3.678a.352.352,0,0,0-.071,0,1.291,1.291,0,0,0-1.219.956,2.695,2.695,0,0,0-.021,5.352,2.455,2.455,0,0,0,.68,1.388v3.564L1,22.046a.351.351,0,0,0-.06.2v1.406a.352.352,0,0,0,.7,0v-1.3L3.691,19.3a.351.351,0,0,0,.06-.2V15.934a2.456,2.456,0,0,0,2.109,0V23.18a.351.351,0,0,0,.24.334l1.406.469a.352.352,0,1,0,.222-.667l-1.166-.389v-7.5a2.452,2.452,0,0,0,.7-1.717s0-4.337,0-4.337H9.493a2.7,2.7,0,0,0,2.672-2.344h.727V23.648a.352.352,0,0,0,.352.352H23.649A.352.352,0,0,0,24,23.648V.352A.351.351,0,0,0,23.649,0ZM2.345,13.329a1.992,1.992,0,0,1,0-3.921ZM5.388,8.437,4.809,9.47,4.241,8.437Zm-2.34.586a.587.587,0,0,1,.406-.557l1,1.818v3.077H3.048Zm1.758,6.445a1.761,1.761,0,0,1-1.722-1.4H6.528A1.761,1.761,0,0,1,4.806,15.469Zm1.758-2.108H5.157V10.286L6.175,8.472a.586.586,0,0,1,.389.551ZM9.376,6.33V5.978a2.461,2.461,0,1,1,4.922,0V6.33ZM23.3,23.3h-9.7V7.033h1.758a.352.352,0,1,0,0-.7H15V5.978a3.163,3.163,0,0,0-1.406-2.629V.7h9.7Z" transform="translate(-0.001)" stroke="#000" stroke-width="0.2"></path>
      </g>
    </g>
    <g id="Group_6896" data-name="Group 6896" transform="translate(14.298 10.945)">
      <g id="Group_6895" data-name="Group 6895">
        <path id="Path_7603" data-name="Path 7603" d="M306.058,233.5a1.055,1.055,0,1,0,1.055,1.055A1.056,1.056,0,0,0,306.058,233.5Zm0,1.406a.352.352,0,1,1,.352-.352A.352.352,0,0,1,306.058,234.906Z" transform="translate(-305.003 -233.5)" stroke="#000" stroke-width="0.2"></path>
      </g>
    </g>
    <g id="Group_6898" data-name="Group 6898" transform="translate(2.345 2.109)">
      <g id="Group_6897" data-name="Group 6897">
        <path id="Path_7604" data-name="Path 7604" d="M52.463,45a2.461,2.461,0,1,0,2.461,2.461A2.464,2.464,0,0,0,52.463,45Zm0,4.219a1.758,1.758,0,1,1,1.758-1.758A1.76,1.76,0,0,1,52.463,49.219Z" transform="translate(-50.002 -45)" stroke="#000" stroke-width="0.2"></path>
      </g>
    </g>
  </g>
</svg>