<svg xmlns="http://www.w3.org/2000/svg" width="24" height="24" viewBox="0 0 24 24">
  <path d="M87.9987487,15.9995 C88.0126176,13.8896264 87.4523165,11.8157174 86.3778502,9.99987569 C85.3218672,8.18591203 83.813088,6.67713282 81.9991244,5.62114986 C80.1832827,4.54668355 78.1093736,3.98638246 75.9995,4.00025135 C73.8896264,3.98638246 71.8157174,4.54668355 69.9998757,5.62114986 C68.185912,6.67713282 66.6771328,8.18591203 65.6211499,9.99987569 C64.5466835,11.8157174 63.9863825,13.8896264 64.0002514,15.9995 C63.9863825,18.1093736 64.5466835,20.1832827 65.6211499,21.9991244 C66.6772728,23.8135802 68.1864198,25.3227272 70.0008756,26.3788501 C71.8167173,27.4533165 73.8906264,28.0136175 76.0005,27.9997486 C78.1103736,28.0136175 80.1842826,27.4533165 82.0001243,26.3788501 C83.814088,25.3228672 85.3228672,23.814088 86.3788501,22.0001243 C87.4533165,20.1842826 88.0136175,18.1103736 87.9997486,16.0005 L87.9987487,15.9995 Z M84.6599599,20.9988399 C83.7904457,22.5166331 82.5362381,23.778432 81.0237194,24.6570892 C79.5086231,25.5476879 77.7803417,26.0106795 76.0229319,25.9967567 C74.2585232,26.0086986 72.5233629,25.5459892 70.9991787,24.6570892 C69.4812775,23.788237 68.21916,22.5347008 67.3399725,21.0227625 C66.4493738,19.5076662 65.9863822,17.7793848 66.000305,16.021975 C65.9883631,14.2575663 66.4510725,12.522406 67.3399725,10.9982218 C68.2094867,9.48042856 69.4636943,8.2186297 70.976213,7.33997252 C72.4913093,6.44937379 74.2195907,5.9863822 75.9770005,6.00030499 C77.7414092,5.98836307 79.4765695,6.45107249 81.0007537,7.33997252 C82.5185469,8.20948669 83.7803458,9.4636943 84.659003,10.976213 C85.5517354,12.4984949 86.0150449,14.2343349 85.9996274,15.9990093 C86.0095159,17.754945 85.5468061,19.4821747 84.6599599,20.9988399 Z M71,15 L81,15 C81.5522847,15 82,15.4477153 82,16 C82,16.5522847 81.5522847,17 81,17 L71,17 C70.4477153,17 70,16.5522847 70,16 C70,15.4477153 70.4477153,15 71,15 Z" transform="translate(-64 -4)"></path>
</svg>